<svg xmlns="http://www.w3.org/2000/svg" xmlns:xlink="http://www.w3.org/1999/xlink" viewBox="0 0 54 54" id="up"><defs><clipPath id="b"><rect width="54" height="54"/></clipPath></defs><g id="a" clip-path="url(#b)"><g transform="translate(50.967 40.089) rotate(180)"><path d="M24.79,29.86a1,1,0,0,1-.806-.288L.252,5.84a1,1,0,0,1,0-1.414L4.426.252a1,1,0,0,1,1.414,0L24.791,19.2,43.741.252a1,1,0,0,1,1.414,0l4.174,4.174a1,1,0,0,1,0,1.414L25.6,29.572a1,1,0,0,1-.707.293Q24.84,29.865,24.79,29.86Z" transform="translate(-0.823 -1.823)"/></g></g></svg>
