<svg width="14" height="17" viewBox="0 0 14 17" fill="none" xmlns="http://www.w3.org/2000/svg">
<path d="M4.2869 2.32326e-05C4.2101 0.000756119 4.13038 0.019284 4.05775 0.059543C3.8271 0.187392 3.74251 0.48379 3.87026 0.714259L4.39106 1.65467C3.13634 2.43102 2.3049 3.75705 2.3049 5.27049C2.3049 5.27684 2.30488 5.28638 2.3049 5.29578C2.3049 5.2991 2.30487 5.30099 2.3049 5.30471C2.3049 5.30965 2.3049 5.31688 2.3049 5.3181V5.55172C2.06392 5.27445 1.70968 5.09937 1.31389 5.09937C0.588797 5.09937 0 5.68816 0 6.41326V10.4606C0 11.1857 0.588797 11.7745 1.31389 11.7745C1.70968 11.7745 2.06392 11.5994 2.3049 11.3221V11.8891C2.3049 12.6534 2.93034 13.2788 3.69468 13.2788H4.04733V15.0793C4.04733 15.8044 4.63613 16.3932 5.36123 16.3932C6.08633 16.3932 6.67512 15.8044 6.67512 15.0793V13.2788H7.2852V15.0793C7.2852 15.8044 7.874 16.3932 8.5991 16.3932C9.32419 16.3932 9.91299 15.8044 9.91299 15.0793V13.2788H10.2656C11.03 13.2788 11.6554 12.6534 11.6554 11.8891V11.3221C11.8964 11.5994 12.2506 11.7745 12.6464 11.7745C13.3715 11.7745 13.9603 11.1857 13.9603 10.4606V6.41326C13.9603 5.68816 13.3715 5.09937 12.6464 5.09937C12.2506 5.09937 11.8964 5.27445 11.6554 5.55172V5.32257V5.3181C11.6555 5.31094 11.6554 5.30382 11.6554 5.30471C11.6555 5.29045 11.6554 5.27908 11.6554 5.27049C11.6554 3.75731 10.8221 2.43256 9.56778 1.65616L10.0901 0.714258C10.2178 0.483788 10.1332 0.187391 9.90257 0.0595416C9.82994 0.0192826 9.75023 0.00075565 9.67342 2.18244e-05C9.5031 -0.00160838 9.33592 0.0881551 9.24786 0.247028L8.70177 1.23357C8.16779 1.03652 7.5868 0.928528 6.98016 0.928528C6.37414 0.928528 5.79208 1.03541 5.25856 1.23208L4.71246 0.247028C4.6244 0.0881547 4.45722 -0.00160462 4.2869 2.18244e-05V2.32326e-05Z" fill="white"/>
<path d="M1.31468 5.44141C0.773577 5.44141 0.343018 5.87197 0.343018 6.41306V10.4604C0.343018 11.0015 0.773577 11.4321 1.31468 11.4321C1.85577 11.4321 2.28633 11.0015 2.28633 10.4604V6.41306C2.28633 5.87197 1.85577 5.44141 1.31468 5.44141ZM12.6472 5.44141C12.1061 5.44141 11.6756 5.87197 11.6756 6.41306V10.4604C11.6756 11.0015 12.1061 11.4321 12.6472 11.4321C13.1883 11.4321 13.6189 11.0015 13.6189 10.4604V6.41306C13.6189 5.87197 13.1883 5.44141 12.6472 5.44141Z" fill="#A4C639"/>
<path d="M5.36204 10.0596C4.82094 10.0596 4.39038 10.4901 4.39038 11.0312V15.0786C4.39038 15.6197 4.82094 16.0502 5.36204 16.0502C5.90314 16.0502 6.3337 15.6197 6.3337 15.0786V11.0312C6.3337 10.4901 5.90314 10.0596 5.36204 10.0596ZM8.59991 10.0596C8.05881 10.0596 7.62825 10.4901 7.62825 11.0312V15.0786C7.62825 15.6197 8.05881 16.0502 8.59991 16.0502C9.141 16.0502 9.57156 15.6197 9.57156 15.0786V11.0312C9.57156 10.4901 9.141 10.0596 8.59991 10.0596Z" fill="#A4C639"/>
<path d="M4.28849 0.34278C4.26552 0.343015 4.24412 0.348941 4.22302 0.360636C4.15373 0.399042 4.13095 0.478661 4.16945 0.548123L4.85393 1.78464C3.53703 2.46986 2.64753 3.77206 2.64575 5.26655H11.3118C11.31 3.77206 10.4205 2.46986 9.10363 1.78464L9.78811 0.548123C9.82661 0.478661 9.80382 0.399042 9.73454 0.360636C9.71344 0.348941 9.69204 0.342999 9.66907 0.34278C9.6199 0.342306 9.57329 0.366874 9.54705 0.414204L8.85365 1.66412C8.28642 1.41251 7.65018 1.27129 6.97878 1.27129C6.30738 1.27129 5.67114 1.41251 5.10391 1.66412L4.41051 0.414204C4.38427 0.366874 4.33766 0.342309 4.28849 0.34278ZM2.64575 5.60878V11.8896C2.64575 12.4699 3.11296 12.9371 3.6933 12.9371H10.2643C10.8446 12.9371 11.3118 12.4699 11.3118 11.8896V5.60878H2.64575Z" fill="#A4C639"/>
<path d="M4.97975 2.95508C4.78192 2.95508 4.61816 3.11883 4.61816 3.31666C4.61816 3.51449 4.78192 3.67824 4.97975 3.67824C5.17758 3.67824 5.34133 3.51449 5.34133 3.31666C5.34133 3.11883 5.17758 2.95508 4.97975 2.95508ZM8.97947 2.95508C8.78164 2.95508 8.61789 3.11883 8.61789 3.31666C8.61789 3.51449 8.78164 3.67824 8.97947 3.67824C9.1773 3.67824 9.34105 3.51449 9.34105 3.31666C9.34105 3.11883 9.1773 2.95508 8.97947 2.95508Z" fill="white"/>
</svg>
