<svg width="14" height="17" viewBox="0 0 14 17" fill="none" xmlns="http://www.w3.org/2000/svg">
<path d="M11.6924 8.64445C11.7165 11.1068 13.975 11.9262 14 11.9367C13.9809 11.9945 13.6391 13.1044 12.8101 14.2509C12.0935 15.2421 11.3497 16.2297 10.1781 16.2502C9.02683 16.2703 8.65663 15.6041 7.34041 15.6041C6.02459 15.6041 5.61328 16.2297 4.52348 16.2703C3.39254 16.3108 2.53134 15.1984 1.80876 14.2108C0.332243 12.1907 -0.79612 8.5024 0.718986 6.01275C1.47166 4.77638 2.81674 3.99346 4.27671 3.97339C5.38726 3.95334 6.43549 4.68045 7.11439 4.68045C7.79286 4.68045 9.06668 3.80604 10.4058 3.93445C10.9664 3.95653 12.54 4.14876 13.5505 5.54847C13.4691 5.59623 11.6728 6.58582 11.6924 8.64445V8.64445ZM9.5287 2.59796C10.1291 1.91016 10.5332 0.952685 10.423 0C9.55753 0.0329179 8.51099 0.545782 7.89021 1.2332C7.33387 1.84194 6.84664 2.81628 6.97811 3.7501C7.94277 3.82074 8.92825 3.2862 9.5287 2.59796" fill="black"/>
</svg>
