<svg width="14" height="14" viewBox="0 0 14 14" fill="none" xmlns="http://www.w3.org/2000/svg">
<g clip-path="url(#clip0_1_563)">
<path d="M9.89991 4.95534C10.0525 5.2876 10.2228 5.61156 10.3742 5.94442C10.6655 6.58503 10.8867 7.26139 10.9786 7.95903C11.0705 8.65667 11.0305 9.37709 10.8126 10.046C10.5662 10.8011 10.0984 11.4729 9.52529 12.0227C8.84728 12.6731 7.97696 13.1745 7.03812 13.2116C6.42637 13.2356 5.81735 13.0608 5.27562 12.7756C4.82035 12.536 4.40473 12.2167 4.07313 11.8234C3.74153 11.43 3.49532 10.9617 3.3813 10.46C3.2409 9.8422 3.30445 9.18636 3.51692 8.58952C3.6689 8.1627 3.89417 7.7653 4.05453 7.34157C4.22979 6.87857 4.32764 6.38418 4.55985 5.94695C4.77026 5.55049 5.08592 5.21187 5.2536 4.79554C5.35374 4.54689 5.39718 4.27982 5.46185 4.01964C5.52652 3.75946 5.61706 3.49741 5.79317 3.29529C6.00546 3.05174 6.32473 2.91973 6.6456 2.88267C6.96646 2.8456 7.29127 2.89565 7.60618 2.96749C7.85689 3.02466 8.10456 3.09566 8.34684 3.18184C8.55364 3.25541 8.75857 3.34107 8.9374 3.46835C9.18108 3.64174 9.36666 3.8859 9.51451 4.14589C9.66236 4.40588 9.77553 4.68363 9.90038 4.95539L9.89991 4.95534Z" fill="#020204"/>
<path d="M7.20693 13.2189C7.46467 13.2339 7.72194 13.2589 7.97734 13.2974C8.20192 13.3316 8.42489 13.3755 8.6456 13.4292C8.9913 13.513 9.33579 13.6199 9.69138 13.63C9.78497 13.6327 9.87883 13.6285 9.97068 13.6081C10.0625 13.5878 10.1507 13.5507 10.224 13.4924C10.3332 13.4054 10.402 13.2741 10.4282 13.1369C10.4543 12.9996 10.4379 12.8568 10.3977 12.7231C10.3173 12.4557 10.1446 12.2275 10.0023 11.9875C9.92054 11.8501 9.84767 11.7073 9.7591 11.5742C9.67053 11.4411 9.56462 11.3164 9.43012 11.2297C9.24417 11.1099 9.01361 11.0708 8.7935 11.0927C8.57339 11.1146 8.36236 11.1942 8.16592 11.2959C7.89055 11.4385 7.63136 11.6343 7.48126 11.9056C7.42901 12 7.39105 12.1015 7.34667 12.1999C7.30229 12.2983 7.25032 12.3951 7.17515 12.4725C7.09127 12.5589 6.98246 12.6171 6.89571 12.7004C6.85237 12.7426 6.81441 12.7906 6.79262 12.8465C6.77082 12.9024 6.76487 12.9663 6.78512 13.023C6.79904 13.0619 6.82448 13.096 6.85588 13.1228C6.88728 13.1496 6.92439 13.1692 6.96334 13.1828C7.04113 13.2101 7.12501 13.2142 7.20735 13.219L7.20693 13.2189Z" fill="#020204"/>
<path d="M6.44106 13.2009C6.22624 13.2058 6.01367 13.2443 5.80373 13.2878C5.60259 13.3293 5.4024 13.3756 5.2037 13.4278C4.86845 13.5158 4.53277 13.6212 4.18622 13.6285C4.09503 13.6304 4.00318 13.6255 3.91428 13.6049C3.82538 13.5843 3.73934 13.5477 3.66802 13.4909C3.55907 13.404 3.4898 13.2729 3.46417 13.136C3.43854 12.9991 3.45419 12.8565 3.49393 12.723C3.57345 12.4559 3.74398 12.2272 3.88363 11.986C3.96297 11.8489 4.03298 11.7064 4.11879 11.5733C4.20459 11.4402 4.30793 11.3152 4.44027 11.2282C4.62059 11.1096 4.84548 11.0695 5.06025 11.0906C5.27503 11.1117 5.48084 11.1909 5.67026 11.2944C5.93766 11.4404 6.18186 11.6414 6.33646 11.9036C6.44494 12.0877 6.50751 12.2984 6.63432 12.4705C6.70259 12.5632 6.78896 12.6433 6.8452 12.7434C6.8736 12.7934 6.8944 12.8486 6.89923 12.906C6.90406 12.9634 6.8922 13.0231 6.85986 13.0707C6.83854 13.1023 6.80893 13.1278 6.77584 13.1466C6.74276 13.1653 6.70625 13.1777 6.66899 13.1855C6.59401 13.201 6.51763 13.1986 6.44148 13.2004L6.44106 13.2009ZM5.24072 4.25555C5.21054 3.89236 5.21729 3.52716 5.20417 3.16295C5.19114 2.81275 5.1589 2.46273 5.17066 2.11248C5.18266 1.75633 5.24236 1.39549 5.40094 1.07542C5.55953 0.755347 5.81708 0.484576 6.13129 0.315216C6.42653 0.155884 6.76703 0.0877927 7.10294 0.0914479C7.55844 0.0964154 8.01507 0.234003 8.38388 0.501212C8.61514 0.668605 8.80962 0.884406 8.96305 1.12514C9.09394 1.33063 9.19563 1.55505 9.25945 1.79058C9.39034 2.27327 9.35927 2.78163 9.38476 3.28062C9.4089 3.75356 9.48458 4.22537 9.45881 4.69821C9.45318 4.8013 9.44212 4.90599 9.39634 4.99813C9.35173 5.08787 9.276 5.16004 9.18897 5.2098C9.10195 5.25957 9.00401 5.28788 8.90499 5.30315C8.7069 5.33371 8.50431 5.31356 8.30477 5.33207C8.01516 5.35892 7.73891 5.46633 7.4515 5.5108C7.10941 5.56376 6.75995 5.52626 6.41359 5.51239C6.27488 5.50686 6.1357 5.50513 5.99802 5.48784C5.86034 5.47055 5.72294 5.43723 5.60044 5.3719C5.52546 5.33169 5.45549 5.27935 5.39916 5.21491C5.34284 5.15048 5.29982 5.07432 5.2784 4.99105C5.2462 4.86672 5.26317 4.73584 5.26364 4.60739C5.26411 4.48995 5.25042 4.37294 5.24021 4.25592L5.24072 4.25555Z" fill="#020204"/>
<path d="M5.78247 4.11621C5.73345 4.1776 5.70149 4.2515 5.68218 4.32775C5.66287 4.40399 5.65584 4.48277 5.6528 4.56131C5.6468 4.71844 5.65636 4.87857 5.61484 5.03021C5.57032 5.19236 5.47069 5.33276 5.37312 5.46969C5.20418 5.70681 5.03337 5.95003 4.9501 6.22895C4.89963 6.39789 4.8828 6.57681 4.90098 6.75217C4.7119 7.02988 4.54811 7.32483 4.41254 7.63225C4.207 8.09815 4.06594 8.59419 4.01632 9.10091C3.95558 9.72147 4.03497 10.3597 4.28001 10.9331C4.45715 11.3476 4.72136 11.7271 5.06196 12.0225C5.23511 12.1727 5.42748 12.3009 5.63368 12.4019C6.3466 12.7523 7.22761 12.7529 7.92867 12.3795C8.29504 12.1842 8.60433 11.8987 8.90247 11.6099C9.08204 11.4359 9.26068 11.2578 9.39766 11.0487C9.66136 10.646 9.75321 10.1566 9.81029 9.67868C9.9101 8.84298 9.91329 7.96024 9.54692 7.20257C9.4204 6.9412 9.25301 6.70168 9.05107 6.49302C8.99741 6.12843 8.89146 5.77148 8.73747 5.43665C8.6264 5.19508 8.49059 4.96512 8.3874 4.72013C8.34504 4.61951 8.30774 4.51651 8.2612 4.418C8.21467 4.3195 8.15623 4.2247 8.07732 4.14925C7.99657 4.07192 7.89596 4.01719 7.78977 3.98214C7.68358 3.94708 7.57186 3.9312 7.46033 3.92557C7.23703 3.91433 7.01326 3.94352 6.78991 3.93466C6.61207 3.92764 6.43479 3.89643 6.25709 3.90692C6.16824 3.91217 6.07948 3.92801 5.997 3.96152C5.91452 3.99502 5.83851 4.04667 5.78303 4.11616L5.78247 4.11621Z" fill="#FDFDFB"/>
<g filter="url(#filter0_f_1_563)">
<path d="M5.67307 4.94861C5.75288 5.18001 5.91348 5.37749 6.10355 5.53176C6.16681 5.58308 6.23392 5.63036 6.30815 5.66377C6.38238 5.69718 6.4643 5.71626 6.54537 5.70932C6.6248 5.70257 6.70034 5.67136 6.76984 5.63219C6.83934 5.59301 6.90368 5.54563 6.97102 5.50299C7.08644 5.42988 7.21002 5.37084 7.32984 5.30523C7.47427 5.22617 7.6143 5.13652 7.73591 5.02593C7.79158 4.97508 7.8435 4.91965 7.90499 4.87597C7.96647 4.83229 8.04009 4.80071 8.1153 4.80582C8.17173 4.80966 8.22463 4.83365 8.27989 4.84556C8.308 4.85151 8.33612 4.85446 8.3641 4.85015C8.39207 4.84584 8.41939 4.83403 8.43898 4.8136C8.46298 4.78862 8.47347 4.75267 8.47179 4.718C8.4701 4.68332 8.45848 4.64991 8.44226 4.61926C8.40993 4.55796 8.36096 4.50515 8.33917 4.4394C8.31976 4.38082 8.3237 4.31756 8.32539 4.25598C8.32708 4.1944 8.32576 4.12992 8.29727 4.07523C8.27562 4.03352 8.23935 4.00049 8.19783 3.97851C8.15631 3.95653 8.10973 3.9457 8.06305 3.94083C7.96956 3.93207 7.87588 3.9502 7.78216 3.9555C7.65769 3.96253 7.53276 3.94697 7.40834 3.95447C7.25322 3.96384 7.10106 4.00883 6.94562 4.00911C6.7682 4.00944 6.59096 3.95138 6.4157 3.97912C6.34049 3.99102 6.26879 4.01839 6.19657 4.04248C6.12436 4.06656 6.04975 4.08779 5.97365 4.08671C5.88723 4.08545 5.80354 4.05555 5.71731 4.04936C5.6742 4.04627 5.63005 4.04936 5.58956 4.0645C5.54907 4.07964 5.51247 4.1078 5.49265 4.14618C5.48126 4.16821 5.47564 4.1929 5.47456 4.21765C5.47348 4.24239 5.47691 4.26718 5.4829 4.29122C5.49485 4.3393 5.51683 4.38415 5.53445 4.43026C5.59973 4.59681 5.61374 4.77929 5.67209 4.94837L5.67307 4.94861Z" fill="black" fill-opacity="0.26"/>
</g>
<g opacity="0.3" filter="url(#filter1_f_1_563)">
<path d="M5.45218 4.28898C5.6072 4.38481 5.74633 4.50239 5.86316 4.63655C5.97155 4.76104 6.06373 4.90219 6.20526 4.99439C6.30522 5.05948 6.42528 5.09617 6.54707 5.10731C6.6901 5.12039 6.83481 5.09924 6.97268 5.0619C7.10047 5.02728 7.224 4.97859 7.33736 4.91428C7.55283 4.79186 7.73288 4.61242 7.97 4.53196C8.02188 4.51439 8.07591 4.50183 8.12591 4.48016C8.17591 4.45849 8.22292 4.42603 8.24682 4.38011C8.27025 4.33599 8.26884 4.28506 8.27634 4.23658C8.28431 4.18478 8.3023 4.13463 8.31214 4.08309C8.32198 4.03155 8.32316 3.97638 8.29902 3.92899C8.27896 3.88971 8.24255 3.85871 8.20061 3.83899C8.15867 3.81926 8.11157 3.81033 8.06452 3.80817C7.97052 3.80385 7.87764 3.82608 7.78391 3.83398C7.65973 3.84443 7.5347 3.82966 7.41009 3.83312C7.25507 3.83743 7.1023 3.86981 6.94737 3.8765C6.77061 3.88418 6.59431 3.85845 6.41745 3.85276C6.34097 3.85025 6.26398 3.85146 6.18857 3.86368C6.11317 3.87589 6.03918 3.89916 5.97535 3.93818C5.91349 3.97604 5.86302 4.0274 5.80632 4.07156C5.77797 4.09366 5.74783 4.11408 5.71475 4.12962C5.68166 4.14516 5.64539 4.15573 5.60837 4.15737C5.5893 4.15824 5.57004 4.15673 5.5512 4.1594C5.5354 4.16185 5.52028 4.16716 5.50671 4.17501C5.49315 4.18287 5.4814 4.19313 5.47216 4.20518C5.46292 4.21724 5.45637 4.23087 5.45287 4.24527C5.44938 4.25968 5.44901 4.27458 5.4518 4.28911L5.45218 4.28898Z" fill="black"/>
</g>
<path d="M5.85445 2.17373C5.77104 2.17827 5.69114 2.21684 5.63007 2.27387C5.56901 2.3309 5.52604 2.40565 5.49951 2.48494C5.44656 2.64352 5.45851 2.81541 5.47046 2.98168C5.48138 3.13267 5.49249 3.28652 5.54905 3.42697C5.57731 3.49717 5.617 3.56287 5.66995 3.61742C5.72291 3.67197 5.78955 3.71311 5.86293 3.73148C5.93182 3.74873 6.0053 3.74516 6.07302 3.72389C6.14073 3.70261 6.20254 3.6639 6.25325 3.61432C6.32729 3.54192 6.37711 3.44721 6.40569 3.34768C6.43428 3.24814 6.44243 3.14373 6.44093 3.04026C6.43906 2.91073 6.42219 2.78064 6.38161 2.65768C6.34102 2.53471 6.27635 2.41854 6.18605 2.32561C6.14233 2.28062 6.09242 2.24102 6.03609 2.21328C5.97976 2.18554 5.91692 2.16993 5.85426 2.17331L5.85445 2.17373Z" fill="url(#paint0_radial_1_563)"/>
<path d="M7.33098 2.17373C7.2007 2.26276 7.09151 2.38812 7.03809 2.53691C6.97079 2.72445 6.99657 2.9343 7.06152 3.12269C7.12806 3.31562 7.23931 3.49946 7.40736 3.61531C7.49139 3.67323 7.58863 3.71292 7.68994 3.72496C7.79126 3.73701 7.89661 3.72051 7.98705 3.67342C8.09732 3.61596 8.18143 3.51535 8.23364 3.40255C8.28584 3.28975 8.30815 3.16496 8.31509 3.04077C8.32446 2.88261 8.30853 2.72183 8.25651 2.57215C8.20004 2.40954 8.09718 2.25958 7.95317 2.16599C7.881 2.11923 7.7989 2.08708 7.7137 2.07532C7.62851 2.06355 7.54008 2.07236 7.4599 2.10353C7.4142 2.12133 7.37147 2.14603 7.33102 2.17382L7.33098 2.17373Z" fill="url(#paint1_radial_1_563)"/>
<g opacity="0.3" filter="url(#filter2_f_1_563)">
<path d="M5.82872 3.52269L5.58804 3.74224C5.54568 3.78488 5.50322 3.83053 5.48424 3.88751C5.46737 3.93812 5.47056 3.99309 5.46221 4.04591C5.4594 4.064 5.45518 4.08199 5.45509 4.10027C5.45494 4.10943 5.45617 4.11856 5.45875 4.12735C5.46142 4.13612 5.46578 4.14436 5.4721 4.15107C5.48251 4.16217 5.49731 4.16822 5.51222 4.17122C5.52712 4.17422 5.54244 4.17459 5.55758 4.17623C5.62581 4.18359 5.6887 4.21667 5.74522 4.25566L5.91158 4.3768C6.03951 4.45806 6.19242 4.49419 6.34393 4.49996C6.49544 4.50572 6.64657 4.48262 6.79521 4.45286C6.91331 4.42924 7.03112 4.40131 7.14317 4.35707C7.31482 4.2894 7.46952 4.18523 7.61732 4.07487C7.68448 4.02472 7.75069 3.97304 7.811 3.91483C7.83148 3.89506 7.85131 3.87453 7.87324 3.85644C7.89517 3.83835 7.91954 3.82261 7.94662 3.81389C7.98786 3.80063 8.03266 3.80442 8.0754 3.81155C8.1076 3.81694 8.13988 3.8242 8.1725 3.82279C8.18881 3.82214 8.20516 3.81933 8.2203 3.81324C8.23544 3.80714 8.24945 3.79777 8.2598 3.78512C8.27332 3.7682 8.28063 3.74716 8.28052 3.72551C8.28061 3.70405 8.27396 3.68286 8.26318 3.66435C8.24139 3.62733 8.20376 3.60235 8.16453 3.58492C8.11083 3.56102 8.05272 3.54931 7.99555 3.53543C7.82005 3.49307 7.64947 3.43046 7.48775 3.35014C7.40733 3.31021 7.32916 3.26598 7.25006 3.22361C7.16871 3.18003 7.08581 3.13814 6.99747 3.11138C6.80004 3.05153 6.58415 3.07117 6.38934 3.13884C6.17284 3.21401 5.97709 3.34799 5.82858 3.52255L5.82872 3.52269Z" fill="black"/>
</g>
<path d="M6.24791 3.27279C6.33071 3.17967 6.38737 3.06613 6.46694 2.9702C6.50677 2.92226 6.5526 2.87858 6.60668 2.84756C6.66076 2.81654 6.72346 2.79882 6.78556 2.80417C6.85463 2.81017 6.91935 2.84456 6.96991 2.89203C7.02048 2.93951 7.05801 2.99982 7.08801 3.06191C7.11669 3.1218 7.13946 3.18563 7.18079 3.23764C7.22484 3.29313 7.2867 3.33099 7.34247 3.37462C7.3704 3.39641 7.39716 3.42008 7.41923 3.44773C7.4413 3.47538 7.45859 3.50752 7.46562 3.54225C7.47254 3.57779 7.46954 3.61454 7.45695 3.64849C7.44468 3.68223 7.42382 3.71278 7.39791 3.73771C7.34608 3.78762 7.27541 3.81457 7.20418 3.82464C7.06172 3.84479 6.91762 3.80234 6.77379 3.80637C6.62819 3.81035 6.48597 3.86185 6.34041 3.85651C6.26763 3.85384 6.19383 3.83608 6.13403 3.79451C6.10388 3.77385 6.07839 3.7471 6.05924 3.71597C6.0404 3.6848 6.02892 3.64895 6.0277 3.61259C6.02653 3.57791 6.03464 3.54323 6.04851 3.51137C6.06238 3.4795 6.08192 3.45035 6.1039 3.42345C6.14795 3.36965 6.2017 3.32476 6.24786 3.27284L6.24791 3.27279Z" fill="url(#paint2_radial_1_563)"/>
<g filter="url(#filter3_f_1_563)">
<path d="M7.87137 0.697293C7.75123 0.782066 7.80371 0.887897 7.85539 0.99416C7.90706 1.10042 7.74178 1.40669 7.74 1.41986C7.73822 1.43304 8.06532 1.26462 8.15447 1.15517C8.25976 1.02596 8.52579 1.33001 8.51138 1.28368C8.51148 1.20091 7.99156 0.61252 7.87142 0.697293H7.87137Z" fill="#7C7C7C"/>
</g>
<path d="M7.63212 2.56767C7.58315 2.57119 7.5354 2.58792 7.49388 2.61453C7.45236 2.64115 7.41688 2.67616 7.38905 2.71669C7.33342 2.79767 7.30891 2.89697 7.30502 2.99506C7.30207 3.06872 7.31018 3.14338 7.33464 3.21297C7.3591 3.28256 7.40025 3.34699 7.45709 3.394C7.5152 3.44212 7.58905 3.47104 7.66446 3.4746C7.73986 3.47816 7.81629 3.45646 7.87815 3.41335C7.92749 3.379 7.96728 3.33172 7.99563 3.27871C8.02399 3.22571 8.04109 3.16704 8.04882 3.10743C8.0626 3.00213 8.04704 2.89219 7.99835 2.79781C7.94966 2.70343 7.86714 2.62569 7.76746 2.58899C7.72435 2.57306 7.67795 2.56481 7.63212 2.56809V2.56767Z" fill="#020204"/>
<g filter="url(#filter4_f_1_563)">
<path d="M7.74835 2.88931C7.70776 2.90534 7.64352 2.89527 7.62575 2.9351C7.61521 2.95872 7.63011 2.99757 7.65401 3.00727C7.70237 3.02695 7.77735 2.99133 7.79694 2.94283C7.80538 2.92174 7.79259 2.88847 7.77164 2.87957C7.76391 2.87629 7.75617 2.88613 7.74839 2.88922L7.74835 2.88931Z" fill="#141413"/>
</g>
<g filter="url(#filter5_f_1_563)">
<path d="M7.93616 2.99383C7.99052 2.93947 7.89745 2.79514 7.82486 2.73609C7.77228 2.6933 7.61913 2.64846 7.62569 2.69509C7.63225 2.74171 7.70067 2.80128 7.7473 2.84678C7.8041 2.90278 7.91038 3.0197 7.93616 2.99383Z" fill="url(#paint3_linear_1_563)"/>
</g>
<path d="M6.83913 2.64731C6.95126 2.55429 7.08058 2.48423 7.21974 2.44112C7.50495 2.35302 7.82896 2.38784 8.08098 2.54773C8.168 2.60293 8.24556 2.67154 8.32654 2.73537C8.40752 2.79919 8.49337 2.85908 8.59066 2.89329C8.64314 2.91176 8.69928 2.92249 8.75467 2.91672C8.80472 2.91147 8.85309 2.89273 8.89451 2.86424C8.93594 2.83575 8.97066 2.79779 8.99667 2.75472C9.04878 2.66863 9.06556 2.56423 9.05656 2.46403C9.03861 2.2636 8.92553 2.08665 8.83078 1.90918C8.80112 1.8536 8.77286 1.79704 8.73705 1.74516C8.62726 1.58602 8.45246 1.48105 8.26913 1.41956C8.08581 1.35808 7.89208 1.33587 7.70022 1.31169C7.61465 1.30091 7.5281 1.28966 7.44248 1.29997C7.34407 1.31183 7.25147 1.35152 7.15545 1.37612C7.10985 1.38784 7.06341 1.39604 7.01824 1.40911C6.97306 1.42219 6.92859 1.44051 6.89185 1.46985C6.83819 1.51277 6.80445 1.57716 6.78983 1.64432C6.77521 1.71147 6.77858 1.78134 6.78927 1.8492C6.81073 1.98491 6.86144 2.11744 6.85666 2.25475C6.85337 2.34903 6.82376 2.44163 6.82737 2.53592C6.82844 2.56404 6.83238 2.59108 6.83908 2.61793" fill="url(#paint4_linear_1_563)"/>
<g filter="url(#filter6_f_1_563)">
<path d="M7.78368 1.78564C7.76132 1.81376 7.74112 1.84432 7.7251 1.87796C7.82566 1.89961 7.92192 1.94104 8.00768 1.99807C8.17381 2.10839 8.29996 2.26969 8.38844 2.44912C8.40905 2.42625 8.42789 2.4017 8.44411 2.37442C8.35516 2.18754 8.22648 2.0185 8.05459 1.90439C7.97202 1.84956 7.88002 1.80814 7.78372 1.78583L7.78368 1.78564Z" fill="url(#paint5_linear_1_563)"/>
</g>
<g filter="url(#filter7_f_1_563)">
<path d="M5.84507 1.87749C5.83373 1.87725 5.82272 1.87828 5.81133 1.8788L5.78931 1.88011C5.85552 1.88611 5.92136 1.90392 5.98116 1.93072C6.0627 1.96728 6.13459 2.01943 6.1979 2.07881C6.31524 2.1887 6.40245 2.32437 6.4615 2.46824C6.44707 2.35952 6.4144 2.25402 6.36487 2.15618C6.34172 2.12947 6.31773 2.10322 6.29167 2.07886C6.22841 2.01953 6.15643 1.96742 6.07493 1.93077C6.0037 1.89876 5.92432 1.87885 5.84503 1.87744L5.84507 1.87749Z" fill="url(#paint6_linear_1_563)"/>
</g>
<path d="M5.65467 2.86519C5.63724 2.97045 5.63658 3.08085 5.67276 3.18119C5.69619 3.24745 5.73602 3.30757 5.78392 3.35926C5.81531 3.3931 5.85083 3.42384 5.89245 3.44376C5.93406 3.46367 5.98224 3.47216 6.02694 3.46096C6.06818 3.45065 6.10436 3.42393 6.13098 3.3908C6.1576 3.35767 6.1754 3.31803 6.18806 3.2774C6.22541 3.15743 6.21945 3.02612 6.18234 2.90606C6.1553 2.81857 6.11055 2.73417 6.04049 2.67517C6.00707 2.64705 5.96794 2.62502 5.92544 2.61486C5.88294 2.60469 5.83687 2.60712 5.79713 2.62517C5.75299 2.64522 5.71878 2.68342 5.69638 2.72639C5.67398 2.76936 5.66249 2.8173 5.65457 2.8651L5.65467 2.86519Z" fill="#020204"/>
<g filter="url(#filter8_f_1_563)">
<path d="M5.87622 2.78882C5.88756 2.81854 5.92561 2.82931 5.94652 2.85326C5.96681 2.87655 5.98808 2.90059 5.99924 2.92941C6.02056 2.98452 5.97815 3.06625 6.02267 3.10515C6.03663 3.11733 6.06461 3.11761 6.07834 3.10515C6.132 3.05632 6.12005 2.95781 6.09886 2.88841C6.07965 2.82542 6.03199 2.76582 5.97327 2.73587C5.94609 2.72205 5.90532 2.71056 5.88208 2.73025C5.86708 2.7429 5.86924 2.77055 5.87622 2.78882Z" fill="url(#paint7_linear_1_563)"/>
</g>
<path d="M5.45687 4.17239C5.45968 4.18621 5.46498 4.19957 5.47219 4.21175C5.48466 4.23261 5.50284 4.24952 5.52248 4.26377C5.54211 4.27802 5.56339 4.29001 5.58396 4.3029C5.69334 4.37165 5.78242 4.46832 5.86162 4.57034C5.96786 4.70728 6.06182 4.85925 6.20372 4.95883C6.30391 5.02913 6.42378 5.06919 6.54553 5.08142C6.68846 5.09581 6.83327 5.07271 6.97114 5.03213C7.09888 4.9945 7.22246 4.94168 7.33582 4.87186C7.55138 4.73895 7.73134 4.54415 7.96846 4.4568C8.02034 4.43772 8.07437 4.42409 8.12432 4.40056C8.17428 4.37704 8.22133 4.3418 8.24523 4.29193C8.26866 4.24404 8.26725 4.18874 8.27475 4.13612C8.28272 4.07988 8.30071 4.02543 8.31056 3.96947C8.3204 3.91352 8.32157 3.85363 8.29743 3.80218C8.27738 3.75953 8.24096 3.72588 8.19902 3.70447C8.15708 3.68305 8.10998 3.67335 8.06293 3.67101C7.96893 3.66632 7.87605 3.69046 7.78232 3.69903C7.65814 3.71037 7.53311 3.69444 7.4085 3.69809C7.25348 3.70278 7.10071 3.73769 6.94578 3.74519C6.76902 3.75377 6.59267 3.72645 6.41586 3.71942C6.33929 3.71632 6.26215 3.71707 6.18661 3.72996C6.11107 3.74285 6.03689 3.76858 5.97386 3.81211C5.91247 3.85457 5.86345 3.9124 5.80703 3.96132C5.77882 3.98578 5.74845 4.00818 5.7149 4.02444C5.68134 4.04071 5.64427 4.05087 5.60692 4.05008C5.58818 4.04961 5.56803 4.04647 5.54975 4.05228C5.53832 4.05589 5.5282 4.06292 5.51957 4.07131C5.51095 4.0797 5.50387 4.08944 5.49717 4.09942C5.48159 4.12257 5.468 4.14699 5.45654 4.17244L5.45687 4.17239Z" fill="url(#paint8_radial_1_563)"/>
<g filter="url(#filter9_f_1_563)">
<path d="M6.15019 4.3625C6.13267 4.43813 6.14379 4.51756 6.1814 4.58547C6.21901 4.65339 6.28045 4.70496 6.35385 4.73023C6.44655 4.76116 6.551 4.74597 6.63761 4.7008C6.68775 4.67456 6.73367 4.63772 6.76273 4.58908C6.77743 4.56476 6.78707 4.53773 6.79108 4.5096C6.79483 4.48148 6.79225 4.45243 6.78241 4.42595C6.77163 4.3969 6.75242 4.37122 6.72871 4.35116C6.70499 4.3311 6.67692 4.31657 6.64749 4.30683C6.58854 4.28733 6.52518 4.28696 6.46314 4.28996C6.36912 4.29447 6.2756 4.30627 6.18342 4.32524" fill="#D9B30D"/>
</g>
<g filter="url(#filter10_f_1_563)">
<path d="M5.84587 3.78185L5.6632 3.90196C5.63241 3.9238 5.60068 3.94742 5.58447 3.98144C5.57294 4.00558 5.57032 4.03299 5.57041 4.0597C5.5705 4.08641 5.57182 4.11331 5.56826 4.13937C5.56591 4.15746 5.56104 4.17526 5.5602 4.19349C5.55973 4.20263 5.56043 4.21177 5.56282 4.22067C5.56511 4.22956 5.56953 4.23775 5.57571 4.24453C5.58381 4.2531 5.59483 4.2584 5.60617 4.26187C5.61751 4.26533 5.62913 4.26702 5.64066 4.26983C5.69572 4.28277 5.74361 4.31655 5.78565 4.35437L5.90937 4.4704C6.02826 4.56713 6.18585 4.60724 6.33863 4.60972C6.4914 4.61221 6.64342 4.5802 6.79296 4.54646L7.14091 4.45067C7.31444 4.38671 7.47551 4.28984 7.61506 4.16847C7.67833 4.11345 7.7377 4.053 7.80874 4.00843C7.87154 3.96898 7.94197 3.94292 8.00585 3.9052C8.01156 3.90182 8.01724 3.89835 8.02234 3.89409C8.02745 3.88983 8.032 3.88481 8.035 3.87886C8.04015 3.86855 8.04015 3.85637 8.03687 3.84531C8.03359 3.83425 8.02722 3.8245 8.02 3.8156C8.01203 3.80575 8.00299 3.79676 7.99329 3.78851C7.92656 3.73134 7.83597 3.71062 7.74839 3.70369C7.6608 3.69675 7.57218 3.70167 7.48596 3.68719C7.40442 3.67313 7.32695 3.64314 7.24827 3.61798C7.16573 3.59128 7.08132 3.57076 6.99573 3.55659C6.79446 3.52378 6.58723 3.53006 6.3876 3.57158C6.19743 3.61118 6.0141 3.68265 5.84681 3.78153L5.84587 3.78185Z" fill="#604405"/>
</g>
<path d="M5.82604 3.56912C5.7356 3.63004 5.65425 3.70423 5.58536 3.78867C5.54599 3.83694 5.51019 3.88943 5.49037 3.94857C5.47476 3.99505 5.46947 4.04426 5.45963 4.09229C5.45588 4.11029 5.45166 4.12838 5.45166 4.14665C5.45171 4.15584 5.45288 4.16507 5.45569 4.17383C5.4585 4.1826 5.46309 4.1908 5.46947 4.19741C5.48001 4.20837 5.49477 4.21428 5.50968 4.21737C5.52458 4.22046 5.53986 4.22088 5.55494 4.22262C5.62313 4.23035 5.68588 4.26348 5.74239 4.30238L5.90894 4.42319C6.03706 4.50426 6.18988 4.54025 6.34134 4.54611C6.4928 4.55197 6.64393 4.52896 6.79263 4.49925C6.91072 4.47567 7.02853 4.4477 7.14058 4.40346C7.31219 4.33579 7.46693 4.23162 7.61473 4.12125C7.68189 4.07111 7.7481 4.01942 7.80841 3.96122C7.82889 3.94144 7.84872 3.92092 7.87065 3.90283C7.89258 3.88474 7.91695 3.86899 7.94403 3.86028C7.98527 3.84702 8.03007 3.85081 8.07281 3.85793C8.10501 3.86332 8.13729 3.87059 8.16991 3.86918C8.18622 3.86853 8.20257 3.86571 8.21771 3.85962C8.23285 3.85353 8.24686 3.84416 8.25722 3.8315C8.27073 3.81459 8.27805 3.79355 8.27793 3.7719C8.27802 3.75043 8.27137 3.72925 8.26059 3.71074C8.2388 3.67372 8.20117 3.64874 8.16194 3.63131C8.10824 3.60741 8.05013 3.59569 7.99296 3.58182C7.81746 3.53946 7.64688 3.47685 7.48516 3.39653C7.40474 3.3566 7.32658 3.31236 7.24747 3.27C7.16612 3.22642 7.08322 3.18452 6.99488 3.15776C6.79745 3.09792 6.58156 3.11756 6.38675 3.18523C6.17025 3.26039 5.9745 3.39437 5.826 3.56893L5.82604 3.56912Z" fill="url(#paint9_linear_1_563)"/>
<g filter="url(#filter11_f_1_563)">
<path d="M7.21401 3.61261C7.20342 3.59921 7.18824 3.58975 7.17184 3.58497C7.15544 3.58019 7.13786 3.58028 7.12104 3.58262C7.0873 3.58839 7.05712 3.60605 7.02891 3.62597C6.94877 3.68108 6.87801 3.74912 6.81629 3.8242C6.73452 3.92355 6.66704 4.03845 6.6444 4.16512C6.64065 4.18644 6.63808 4.20823 6.64075 4.22979C6.64342 4.25135 6.65167 4.27267 6.66699 4.28804C6.68039 4.30154 6.69867 4.30978 6.71751 4.3125C6.73635 4.31522 6.75575 4.3126 6.77374 4.3065C6.80983 4.29432 6.83982 4.26901 6.86812 4.24371C7.02446 4.10382 7.16584 3.93592 7.2224 3.73385C7.22803 3.71356 7.2329 3.6928 7.23271 3.67175C7.23252 3.65071 7.22709 3.62911 7.21406 3.61261H7.21401Z" fill="#F6DA4A"/>
</g>
<g opacity="0.8" filter="url(#filter12_f_1_563)">
<path d="M6.83788 3.32374C6.84866 3.35851 6.9048 3.3528 6.93723 3.36943C6.96568 3.38405 6.9885 3.41615 7.02051 3.41709C7.05097 3.41803 7.09848 3.40655 7.10251 3.37632C7.10776 3.33635 7.04937 3.31095 7.01184 3.29628C6.96357 3.27744 6.90157 3.26788 6.85625 3.29309C6.84585 3.29886 6.83451 3.3124 6.83807 3.32379L6.83788 3.32374Z" fill="url(#paint10_radial_1_563)"/>
</g>
<g opacity="0.8" filter="url(#filter13_f_1_563)">
<path d="M6.30529 3.30146C6.26368 3.28787 6.19483 3.3613 6.21728 3.39893C6.22347 3.40924 6.24235 3.42236 6.25505 3.41534C6.27427 3.40479 6.28992 3.36707 6.31068 3.35231C6.32455 3.34246 6.32146 3.30676 6.30524 3.30151L6.30529 3.30146Z" fill="url(#paint11_radial_1_563)"/>
</g>
<g filter="url(#filter14_f_1_563)">
<path d="M8.13852 4.0163C8.21247 4.0163 8.28074 3.94215 8.29099 3.85068C8.30124 3.75921 8.2496 3.68506 8.17565 3.68506C8.1017 3.68506 8.03344 3.75921 8.02318 3.85068C8.01293 3.94215 8.06457 4.0163 8.13852 4.0163Z" fill="url(#paint12_linear_1_563)"/>
</g>
<path d="M5.67429 2.50867C5.80011 2.43369 5.95335 2.41635 6.09919 2.43013C6.24503 2.44391 6.38622 2.48674 6.52751 2.52526C6.63117 2.55347 6.73614 2.57962 6.83329 2.62545C6.93043 2.67128 7.02074 2.73867 7.07426 2.83179L7.09956 2.87687C7.10865 2.89149 7.11938 2.90546 7.13311 2.91577C7.14685 2.92608 7.1639 2.93282 7.1811 2.93189C7.18972 2.93142 7.19825 2.92908 7.20566 2.92467C7.21306 2.92026 7.21939 2.91389 7.22337 2.9063C7.22796 2.89754 7.22937 2.88737 7.22885 2.87743C7.22808 2.86755 7.22624 2.85777 7.22337 2.84828C7.18799 2.71927 7.10458 2.60985 7.04108 2.49213L6.93339 2.27675C6.80133 2.03494 6.58454 1.84487 6.33823 1.72157C6.09193 1.59828 5.8168 1.539 5.54172 1.52288C5.22305 1.50422 4.90345 1.54209 4.589 1.59739C4.45263 1.62138 4.31439 1.64964 4.19367 1.71745C4.13336 1.75133 4.07806 1.7951 4.0349 1.84913C3.99174 1.90316 3.96105 1.96793 3.95111 2.03644C3.94155 2.10252 3.95158 2.17047 3.97454 2.23307C3.99751 2.29568 4.0335 2.35295 4.07563 2.40468C4.15984 2.50816 4.26776 2.58904 4.3672 2.67789C4.46665 2.76674 4.55934 2.86497 4.67007 2.93859C4.72565 2.97537 4.78597 3.00584 4.85017 3.02374C4.91437 3.04164 4.98279 3.0467 5.04811 3.0333C5.11583 3.01943 5.17853 2.9862 5.23341 2.94416C5.28828 2.90213 5.33585 2.85138 5.38093 2.79898C5.47114 2.6942 5.5554 2.57939 5.67415 2.50863L5.67429 2.50867Z" fill="url(#paint13_radial_1_563)"/>
<path d="M10.1149 7.00358C10.4 7.23297 10.5809 7.57933 10.6369 7.94097C10.6806 8.22308 10.6522 8.51246 10.5886 8.79068C10.5251 9.0689 10.4269 9.33784 10.3294 9.60608C10.2905 9.71307 10.2515 9.82104 10.236 9.93379C10.2206 10.0465 10.2304 10.1659 10.2848 10.266C10.3471 10.3806 10.4635 10.4595 10.5885 10.4967C10.712 10.5334 10.8453 10.5326 10.9704 10.5014C11.0954 10.4703 11.212 10.4094 11.3138 10.3304C11.5723 10.1297 11.7282 9.81725 11.7886 9.49568C11.8489 9.17411 11.8212 8.84195 11.7652 8.51953C11.6886 8.07996 11.5598 7.65024 11.3959 7.23513C11.2753 6.92982 11.1342 6.62967 10.9371 6.36724C10.7442 6.11043 10.5009 5.89426 10.312 5.63455C10.1806 5.45412 10.0754 5.25262 9.91803 5.09441C9.8393 5.01531 9.74745 4.94764 9.64341 4.90719C9.53938 4.86675 9.42255 4.8549 9.31514 4.88517C9.17362 4.925 9.0574 5.03653 8.99634 5.17019C8.93528 5.30384 8.92403 5.45712 8.94798 5.60226C8.97891 5.78947 9.06448 5.96324 9.16101 6.12665C9.27006 6.31114 9.39636 6.48875 9.56103 6.62592C9.73288 6.76908 9.94071 6.86351 10.1149 7.00363L10.1149 7.00358Z" fill="#020204"/>
<g filter="url(#filter15_f_1_563)">
<path d="M9.44312 6.56055L9.51468 6.62498C9.68963 6.76815 9.78281 6.92888 9.96019 7.0691C10.2505 7.29849 10.5451 7.69443 10.6021 8.05602C10.6465 8.33813 10.5878 8.49137 10.516 8.824C10.4442 9.15663 10.2407 9.6276 10.1307 9.94832C10.0869 10.0763 10.2195 10.0234 10.2021 10.1583C10.1934 10.2245 10.1928 10.2915 10.2005 10.3579L10.2038 10.3193C10.2249 10.1355 10.2812 9.95873 10.3426 9.78534C10.4607 9.45158 10.5962 9.12458 10.6896 8.78211C10.783 8.43964 10.7726 8.19333 10.7239 7.89903C10.6626 7.529 10.4473 7.18733 10.1425 6.96178C9.92684 6.80231 9.67269 6.70006 9.44326 6.56055H9.44312Z" fill="#838384"/>
</g>
<g opacity="0.25" filter="url(#filter16_f_1_563)">
<path d="M4.99765 6.3533C5.04525 6.42472 4.96806 6.67094 6.07757 6.51334C6.07757 6.51334 5.88272 6.53476 5.69064 6.57913C5.39204 6.67909 5.13185 6.79081 4.93117 6.9388C4.73232 7.08511 4.58675 7.27607 4.4043 7.44009C4.4043 7.44009 4.69976 6.90024 4.77338 6.73776C4.847 6.57529 4.76104 6.58312 4.81936 6.34346C4.87767 6.10381 5.0202 5.87451 5.0202 5.87451C5.0202 5.87451 4.9038 6.21239 4.99765 6.35326V6.3533Z" fill="url(#paint14_radial_1_563)"/>
</g>
<g opacity="0.42" filter="url(#filter17_f_1_563)">
<path d="M8.56556 6.28888C8.33945 6.44634 8.20697 6.42774 7.93259 6.45852C7.65821 6.48931 6.91577 6.47821 6.91577 6.47821C6.91577 6.47821 7.02327 6.47619 7.26152 6.52057C7.49977 6.56495 7.98569 6.60736 8.25932 6.71154C8.53294 6.81571 8.63271 6.84542 8.79903 6.95053C9.03568 7.10021 9.20945 7.33466 9.43575 7.49868C9.43575 7.49868 9.44671 7.28105 9.35533 7.11854C9.26395 6.95602 9.01792 6.69982 8.94613 6.46059C8.87434 6.22135 8.83957 5.75146 8.83957 5.75146C8.83957 5.75146 8.79177 6.13128 8.56561 6.28879L8.56556 6.28888Z" fill="url(#paint15_radial_1_563)"/>
</g>
<g opacity="0.2" filter="url(#filter18_f_1_563)">
<path d="M6.43801 5.95457L6.40535 6.15814C6.39879 6.19141 6.39153 6.22469 6.37911 6.25622C6.36669 6.28776 6.34893 6.31771 6.32381 6.34039C6.30178 6.36026 6.27489 6.37394 6.24789 6.38631C6.14255 6.43458 6.0298 6.46659 5.91479 6.48097L6.05234 6.49353C6.08116 6.49667 6.11007 6.50019 6.13819 6.50741C6.16631 6.51462 6.19372 6.52615 6.2171 6.54279C6.24278 6.56153 6.26294 6.58721 6.27803 6.61524C6.30802 6.6711 6.31805 6.73534 6.32362 6.798C6.33065 6.87874 6.33121 6.96014 6.32517 7.04093C6.33061 6.98685 6.34195 6.93334 6.35891 6.8817C6.38951 6.78863 6.43876 6.70137 6.50512 6.62929C6.53146 6.60071 6.56042 6.57447 6.59228 6.55207C6.69105 6.48318 6.81201 6.45375 6.93138 6.46954C6.81031 6.47447 6.69125 6.43752 6.59425 6.3649C6.54542 6.32811 6.50287 6.28228 6.47335 6.22876C6.42749 6.14489 6.41493 6.04682 6.43815 5.9541L6.43801 5.95457Z" fill="url(#paint16_radial_1_563)"/>
</g>
<g opacity="0.1" filter="url(#filter19_f_1_563)">
<path d="M6.14797 7.54785C6.09032 7.76727 6.05073 7.99103 6.02959 8.2169C5.99974 8.53613 6.00691 8.85761 5.98976 9.17782C5.9757 9.44953 5.94337 9.72404 5.99051 9.992C6.013 10.1198 6.05345 10.2444 6.11024 10.361C6.11926 10.3165 6.12586 10.2715 6.13002 10.2263C6.15003 10.009 6.11343 9.79106 6.10106 9.57324C6.07941 9.19145 6.13227 8.80939 6.15378 8.42802C6.1703 8.13481 6.16835 7.84086 6.14792 7.5479L6.14797 7.54785Z" fill="black"/>
</g>
<g filter="url(#filter20_f_1_563)">
<path d="M8.7828 4.25733C8.68148 4.34965 8.83032 4.48827 8.90089 4.65116C8.94475 4.75238 9.06617 4.89508 9.18356 4.87226C9.2719 4.85506 9.32668 4.72792 9.31834 4.63842C9.30222 4.46549 9.15634 4.42505 9.05043 4.36568C8.96654 4.31863 8.85393 4.19257 8.78284 4.25742L8.7828 4.25733Z" fill="#838384"/>
</g>
<g opacity="0.2" filter="url(#filter21_f_1_563)">
<path d="M12.033 11.8158C12.0107 11.8891 11.9775 11.9587 11.9343 12.0226C11.8391 12.1637 11.7008 12.27 11.5625 12.3679C11.3267 12.535 11.0811 12.6884 10.8617 12.8787C10.7146 13.006 10.5807 13.1487 10.4564 13.2989C10.3501 13.4273 10.2502 13.5622 10.1291 13.6764C10.0069 13.7917 9.86301 13.8848 9.70796 13.9356C9.51942 13.9973 9.3202 13.9943 9.13858 13.9478C9.0113 13.9151 8.88719 13.8584 8.80837 13.7558C8.72921 13.6528 8.70356 13.5143 8.69441 13.3784C8.6782 13.138 8.70693 12.8925 8.73306 12.6485C8.75481 12.4458 8.77483 12.2429 8.7831 12.0406C8.79754 11.6727 8.77362 11.3079 8.72382 10.95C8.71549 10.89 8.7064 10.8297 8.71145 10.7679C8.7165 10.7061 8.7372 10.6419 8.78055 10.5943C8.82059 10.5502 8.87646 10.5242 8.93214 10.5113C8.98782 10.4985 9.04426 10.4973 9.10023 10.4963C9.23208 10.4928 9.36471 10.4851 9.49459 10.4966C9.57654 10.5039 9.65691 10.5189 9.73871 10.5268C9.87529 10.5399 10.0169 10.533 10.1539 10.4928C10.3013 10.4496 10.4419 10.3685 10.5918 10.3463C10.6532 10.3371 10.715 10.3382 10.7746 10.3466C10.8356 10.3551 10.8963 10.372 10.9432 10.4092C10.9788 10.4375 11.0049 10.4763 11.0253 10.5178C11.0556 10.5795 11.0743 10.6476 11.0849 10.7174C11.0944 10.7792 11.0977 10.843 11.1137 10.9028C11.1399 11.0012 11.1994 11.0849 11.2709 11.1531C11.3425 11.2212 11.4261 11.275 11.5096 11.3281C11.5929 11.3809 11.6765 11.4334 11.7654 11.4769C11.8071 11.4973 11.85 11.5158 11.8898 11.5394C11.9297 11.5629 11.9668 11.5918 11.9933 11.63C12.0292 11.6818 12.0436 11.7497 12.0328 11.8163" fill="url(#paint17_linear_1_563)"/>
</g>
<path d="M12.9688 11.9919C12.9374 12.0725 12.8925 12.1478 12.8368 12.2139C12.7138 12.3599 12.5431 12.4562 12.3731 12.5429C12.083 12.6907 11.7825 12.8204 11.5098 12.9982C11.3272 13.1174 11.1586 13.2572 11.0009 13.4079C10.8661 13.5368 10.7382 13.6744 10.587 13.7836C10.4344 13.8938 10.2581 13.9736 10.072 14.0016C9.84567 14.0355 9.61183 13.9916 9.40188 13.9001C9.25483 13.8361 9.1134 13.7444 9.02872 13.6082C8.94371 13.4714 8.92431 13.3041 8.92407 13.1431C8.9237 12.8583 8.97647 12.5761 9.02614 12.2962C9.06738 12.0632 9.10674 11.8297 9.13205 11.5944C9.17811 11.1666 9.17779 10.7344 9.14705 10.3051C9.14236 10.2332 9.13589 10.1606 9.14667 10.0893C9.15745 10.0181 9.18674 9.94702 9.24133 9.90001C9.2918 9.85657 9.35943 9.8374 9.42597 9.83375C9.49251 9.83009 9.55878 9.84064 9.62467 9.85024C9.77992 9.87293 9.9364 9.89078 10.0881 9.93071C10.1839 9.95587 10.2771 9.98975 10.3727 10.0155C10.5322 10.0586 10.6991 10.0793 10.8632 10.0601C11.0399 10.0395 11.2114 9.97312 11.3892 9.97743C11.4621 9.97921 11.5344 9.99299 11.6041 10.0149C11.6751 10.0373 11.7451 10.0694 11.7973 10.1225C11.8369 10.1628 11.8646 10.2136 11.8854 10.2663C11.9163 10.3448 11.933 10.4283 11.9401 10.5124C11.9464 10.5868 11.9454 10.662 11.9595 10.7354C11.9827 10.8561 12.046 10.9661 12.1248 11.0604C12.2036 11.1547 12.2982 11.2347 12.3917 11.3139C12.4855 11.3926 12.5797 11.4711 12.6807 11.5401C12.7282 11.5725 12.7771 11.6029 12.8221 11.6385C12.8672 11.6741 12.9086 11.7157 12.9367 11.7657C12.9749 11.8337 12.9866 11.9161 12.9687 11.9919L12.9688 11.9919Z" fill="url(#paint18_linear_1_563)"/>
<g filter="url(#filter22_f_1_563)">
<path d="M12.8224 11.8458C12.7934 11.9185 12.7527 11.9859 12.7019 12.0454C12.5893 12.1773 12.4334 12.2635 12.2783 12.3411C12.0134 12.4738 11.7393 12.5904 11.4901 12.7505C11.3236 12.8575 11.1696 12.9832 11.0253 13.1188C10.9021 13.2347 10.7852 13.3586 10.6473 13.4566C10.5077 13.556 10.3466 13.6275 10.177 13.6525C9.97032 13.683 9.75709 13.6434 9.56505 13.5613C9.43116 13.504 9.30182 13.4221 9.22427 13.2989C9.14713 13.1762 9.12914 13.0257 9.12867 12.8808C9.12806 12.6247 9.17637 12.3714 9.22192 12.1193C9.25974 11.9099 9.29573 11.7 9.31865 11.4884C9.36035 11.1038 9.35839 10.7153 9.33233 10.3293C9.32797 10.2646 9.32296 10.1993 9.33289 10.1353C9.34283 10.0713 9.36935 10.0075 9.41846 9.96517C9.46453 9.92548 9.52639 9.9081 9.58717 9.90491C9.64795 9.90172 9.7084 9.91156 9.76853 9.92037C9.91019 9.94123 10.0531 9.95693 10.1917 9.99268C10.2791 10.0153 10.3643 10.0457 10.4515 10.069C10.5973 10.1079 10.7497 10.1264 10.8996 10.1091C11.0608 10.0905 11.2176 10.0308 11.3799 10.0347C11.4464 10.0364 11.5125 10.0488 11.5762 10.0685C11.641 10.0884 11.7051 10.1169 11.7527 10.1651C11.7886 10.2015 11.8134 10.2473 11.8331 10.2945C11.8624 10.3646 11.8815 10.4396 11.8831 10.5157C11.8847 10.5951 11.8673 10.6748 11.8781 10.7534C11.8868 10.8173 11.9138 10.8775 11.9484 10.9319C11.9829 10.9864 12.0249 11.0355 12.0666 11.0847C12.1471 11.1798 12.2278 11.2767 12.3287 11.3497C12.4436 11.4329 12.58 11.4814 12.6987 11.5591C12.7341 11.5822 12.7683 11.6084 12.7933 11.6425C12.8141 11.6715 12.8276 11.7052 12.8327 11.7406C12.8378 11.776 12.8343 11.8121 12.8225 11.8458H12.8224Z" fill="#CD8907"/>
</g>
<g filter="url(#filter23_f_1_563)">
<path d="M12.8045 11.7618C12.7723 11.8348 12.7305 11.9029 12.6808 11.9633C12.5655 12.1036 12.4097 12.2001 12.2457 12.262C11.9756 12.3641 11.6808 12.3777 11.4157 12.4939C11.2542 12.5647 11.1088 12.6714 10.9615 12.7723C10.8425 12.8537 10.7209 12.9322 10.5902 12.9892C10.4427 13.0536 10.2857 13.0897 10.1282 13.1151C10.028 13.1312 9.92665 13.143 9.82547 13.1374C9.72429 13.1318 9.62279 13.1081 9.53356 13.0566C9.46585 13.0174 9.40501 12.9611 9.3688 12.8881C9.32863 12.8069 9.32166 12.7116 9.32263 12.6195C9.32509 12.3743 9.37758 12.1318 9.37597 11.8866C9.37458 11.6731 9.33232 11.4624 9.32016 11.2494C9.29676 10.8397 9.38471 10.4228 9.30731 10.0209C9.29499 9.95657 9.27828 9.89229 9.27908 9.82658C9.27951 9.79366 9.28444 9.76074 9.29595 9.73031C9.30747 9.69987 9.32611 9.67227 9.35085 9.65304C9.37174 9.63687 9.39638 9.62705 9.42172 9.62261C9.44705 9.61816 9.47298 9.61903 9.49842 9.62301C9.5492 9.63092 9.59762 9.65085 9.64705 9.66557C9.78857 9.70773 9.93806 9.7068 10.0818 9.73862C10.1721 9.7586 10.2595 9.79118 10.3488 9.81566C10.4987 9.85609 10.6552 9.87416 10.809 9.85608C10.9745 9.83674 11.1361 9.77668 11.3025 9.78101C11.3706 9.78274 11.4383 9.79545 11.5041 9.81508C11.5699 9.83472 11.6356 9.86244 11.6854 9.91268C11.7213 9.94894 11.747 9.99526 11.768 10.0432C11.7985 10.1132 11.8198 10.1893 11.8193 10.2666C11.819 10.3068 11.8128 10.3467 11.8093 10.3867C11.8057 10.4266 11.8045 10.4678 11.8141 10.5066C11.8236 10.5455 11.8438 10.5809 11.8667 10.6129C11.8897 10.6448 11.9157 10.6741 11.9395 10.7054C12.006 10.793 12.0536 10.8951 12.1054 10.9936C12.1571 11.092 12.2153 11.1895 12.2971 11.2604C12.4085 11.3569 12.553 11.3955 12.6772 11.4717C12.7136 11.4941 12.7488 11.5202 12.7743 11.556C12.7948 11.5848 12.8083 11.6187 12.8136 11.6546C12.8188 11.6905 12.8157 11.7272 12.8044 11.7614L12.8045 11.7618Z" fill="#F5C021"/>
</g>
<g filter="url(#filter24_f_1_563)">
<path d="M9.28058 10.0589C9.4341 10.0173 9.56485 10.1337 9.67619 10.2216C9.74813 10.283 9.85207 10.2675 9.94036 10.2704C10.0866 10.2651 10.2321 10.295 10.3784 10.2768C10.6663 10.2524 10.9486 10.1817 11.2379 10.169C11.3762 10.1603 11.5313 10.1523 11.6507 10.233C11.6991 10.2666 11.7701 10.4083 11.8178 10.3551C11.7981 10.2061 11.6877 10.0619 11.5394 10.0223C11.4235 10.004 11.3051 10.0359 11.1884 10.0255C10.8406 10.0172 10.4952 9.95267 10.1465 9.97118C9.90394 9.97329 9.66162 9.96204 9.41943 9.95258C9.3243 9.93313 9.2907 10.0177 9.23901 10.0501" fill="url(#paint19_linear_1_563)"/>
</g>
<g opacity="0.75" filter="url(#filter25_f_1_563)">
<path d="M9.96708 7.22657C10.0227 7.21797 10.3662 7.50999 10.3193 7.61894C10.2723 7.7279 10.1841 7.66203 10.121 7.66276C10.0579 7.66349 9.88523 7.74186 9.85631 7.69241C9.82739 7.64297 9.93266 7.52746 9.98776 7.43096C10.0321 7.35323 9.91141 7.23573 9.9671 7.22712L9.96708 7.22657Z" fill="#7C7C7C"/>
</g>
<g opacity="0.25" filter="url(#filter26_f_1_563)">
<path d="M5.12029 5.3903C5.11473 5.32302 5.01866 5.31296 4.97581 5.34649C4.93963 5.37486 4.9057 5.47165 4.93691 5.50954C4.98765 5.57092 5.12786 5.4826 5.12028 5.39039L5.12029 5.3903Z" fill="#7C7C7C"/>
</g>
<g opacity="0.35" filter="url(#filter27_f_1_563)">
<path d="M11.3488 10.2933C11.3224 10.2416 11.2744 10.203 11.2208 10.1807C11.1673 10.1583 11.1085 10.1512 11.0505 10.1516C10.9345 10.1526 10.8193 10.1827 10.7037 10.1727C10.6061 10.1643 10.5135 10.1276 10.4179 10.1044C10.3196 10.081 10.2153 10.0716 10.1177 10.0977C10.0134 10.1261 9.92138 10.1959 9.86374 10.2873C9.81294 10.3679 9.78876 10.4632 9.78126 10.5582C9.77376 10.6531 9.78187 10.7487 9.79148 10.8435C9.79841 10.9122 9.80619 10.9809 9.82278 11.0479C9.83937 11.1149 9.86514 11.1802 9.90554 11.236C9.96365 11.3164 10.05 11.3738 10.1431 11.4082C10.297 11.4645 10.4662 11.4615 10.6179 11.3999C10.8832 11.2848 11.1077 11.0783 11.2445 10.8235C11.2935 10.7323 11.3315 10.6352 11.3561 10.5346C11.3659 10.4947 11.3735 10.4539 11.3739 10.4128C11.3743 10.3716 11.367 10.3298 11.3483 10.2933H11.3488Z" fill="url(#paint20_radial_1_563)"/>
</g>
<g opacity="0.35" filter="url(#filter28_f_1_563)">
<path d="M11.3488 10.2396C11.3224 10.2023 11.2744 10.1744 11.2208 10.1582C11.1673 10.1421 11.1085 10.1369 11.0505 10.1372C10.9345 10.1379 10.8193 10.1597 10.7037 10.1525C10.6061 10.1464 10.5135 10.1198 10.4179 10.1031C10.3196 10.0862 10.2153 10.0794 10.1177 10.0983C10.0134 10.1188 9.92138 10.1692 9.86374 10.2353C9.81294 10.2936 9.78876 10.3624 9.78126 10.4311C9.77376 10.4998 9.78187 10.5689 9.79148 10.6374C9.79841 10.687 9.80619 10.7367 9.82278 10.7851C9.83937 10.8336 9.86514 10.8808 9.90554 10.9212C9.96365 10.9793 10.05 11.0208 10.1431 11.0457C10.297 11.0863 10.4662 11.0842 10.6179 11.0397C10.8832 10.9564 11.1077 10.8071 11.2445 10.623C11.2935 10.557 11.3315 10.4868 11.3561 10.4141C11.3659 10.3852 11.3735 10.3558 11.3739 10.326C11.3743 10.2963 11.367 10.2661 11.3483 10.2396H11.3488Z" fill="url(#paint21_radial_1_563)"/>
</g>
<path d="M11.5681 9.80761C11.5491 9.75587 11.5157 9.71004 11.4749 9.67312C11.434 9.63619 11.3858 9.60788 11.3351 9.58633C11.2336 9.54321 11.1233 9.52728 11.0149 9.50685L10.709 9.447C10.6026 9.42892 10.4926 9.41739 10.3873 9.44115C10.2952 9.46191 10.21 9.50957 10.1402 9.5733C10.0705 9.63703 10.016 9.71651 9.97691 9.80292C9.90793 9.95429 9.88623 10.1246 9.8994 10.2904C9.90924 10.4138 9.94041 10.541 10.0217 10.6344C10.0873 10.7099 10.1804 10.757 10.2764 10.7853C10.4416 10.8342 10.6216 10.8316 10.7853 10.778C11.0575 10.686 11.2929 10.5089 11.4568 10.2729C11.5102 10.1956 11.5558 10.1113 11.5765 10.0197C11.5922 9.94942 11.5928 9.87537 11.5681 9.80813V9.80761Z" fill="#020204"/>
<g filter="url(#filter29_f_1_563)">
<path d="M10.4457 9.39337C10.4202 9.39477 10.3948 9.39771 10.3696 9.40218C10.207 9.4311 10.0581 9.53387 9.9742 9.67605C9.915 9.77741 9.88795 9.89434 9.8966 10.0114C9.90002 9.92976 9.92144 9.84986 9.96103 9.77849C10.0282 9.65749 10.15 9.5662 10.2862 9.54127C10.3705 9.5259 10.4564 9.53518 10.541 9.54568C10.6222 9.5558 10.7041 9.56644 10.7841 9.58378C10.9078 9.61058 11.0303 9.65173 11.1342 9.72436C11.1584 9.74123 11.181 9.76045 11.2001 9.78294C11.2191 9.80544 11.2339 9.83158 11.2396 9.86054C11.248 9.90291 11.2359 9.94738 11.2148 9.98501C11.1937 10.0226 11.1649 10.0556 11.1342 10.086C11.1094 10.1107 11.0829 10.1345 11.0566 10.1577C11.1766 10.1345 11.298 10.1016 11.3977 10.0318C11.4399 10.0023 11.4781 9.96692 11.5032 9.92198C11.5283 9.87704 11.5389 9.82263 11.5266 9.77263C11.5183 9.73889 11.4999 9.70787 11.4768 9.68186C11.4538 9.65585 11.4262 9.63443 11.3978 9.61452C11.2722 9.52656 11.1253 9.47018 10.9731 9.4519C10.8756 9.43396 10.7772 9.41882 10.6788 9.40645C10.6018 9.39679 10.5232 9.38897 10.4459 9.39333L10.4457 9.39337Z" fill="url(#paint22_radial_1_563)"/>
</g>
<g filter="url(#filter30_f_1_563)">
<path d="M10.4457 9.39337C10.4202 9.39477 10.3948 9.39771 10.3696 9.40218C10.207 9.4311 10.0581 9.53387 9.9742 9.67605C9.915 9.77741 9.88795 9.89434 9.8966 10.0114C9.90002 9.92976 9.92144 9.84986 9.96103 9.77849C10.0282 9.65749 10.15 9.5662 10.2862 9.54127C10.3705 9.5259 10.4564 9.53518 10.541 9.54568C10.6222 9.5558 10.7041 9.56644 10.7841 9.58378C10.9078 9.61058 11.0303 9.65173 11.1342 9.72436C11.1584 9.74123 11.181 9.76045 11.2001 9.78294C11.2191 9.80544 11.2339 9.83158 11.2396 9.86054C11.248 9.90291 11.2359 9.94738 11.2148 9.98501C11.1937 10.0226 11.1649 10.0556 11.1342 10.086C11.1094 10.1107 11.0829 10.1345 11.0566 10.1577C11.1766 10.1345 11.298 10.1016 11.3977 10.0318C11.4399 10.0023 11.4781 9.96692 11.5032 9.92198C11.5283 9.87704 11.5389 9.82263 11.5266 9.77263C11.5183 9.73889 11.4999 9.70787 11.4768 9.68186C11.4538 9.65585 11.4262 9.63443 11.3978 9.61452C11.2722 9.52656 11.1253 9.47018 10.9731 9.4519C10.8756 9.43396 10.7772 9.41882 10.6788 9.40645C10.6018 9.39679 10.5232 9.38897 10.4459 9.39333L10.4457 9.39337Z" fill="url(#paint23_linear_1_563)"/>
</g>
<path d="M5.1171 5.08154L4.3241 6.07437C4.15853 6.27963 3.98903 6.48648 3.88125 6.72716C3.78865 6.93397 3.74488 7.15862 3.68138 7.37621C3.6093 7.62326 3.51146 7.86217 3.40161 8.09489C3.30015 8.30975 3.18839 8.5196 3.07639 8.72922C2.99494 8.88171 2.91213 9.03757 2.88388 9.20815C2.86157 9.34293 2.8745 9.48201 2.9089 9.61426C2.9433 9.7465 2.99794 9.87247 3.06064 9.99413C3.32621 10.5131 3.72468 10.9605 4.19668 11.3028C4.41084 11.4581 4.64032 11.5924 4.88096 11.7023C5.01133 11.7618 5.14873 11.815 5.29204 11.8174C5.36374 11.8187 5.43609 11.8069 5.5017 11.7781C5.56731 11.7493 5.62589 11.7029 5.66492 11.6428C5.71286 11.5688 5.72912 11.477 5.71952 11.3894C5.70991 11.3018 5.6757 11.2182 5.62987 11.1429C5.5174 10.9591 5.34096 10.8261 5.17081 10.6943C4.80341 10.4097 4.44795 10.1095 4.10787 9.79266C4.01181 9.70316 3.91583 9.61093 3.84872 9.49818C3.7834 9.38834 3.74806 9.26321 3.72416 9.13767C3.65856 8.79323 3.67543 8.43084 3.79258 8.10046C3.83842 7.97122 3.89896 7.84778 3.95745 7.72369C4.05867 7.50859 4.1546 7.28946 4.28782 7.0926C4.45362 6.8475 4.67524 6.6399 4.81034 6.37663C4.9244 6.1545 4.97061 5.90463 5.01475 5.65879L5.1171 5.08154Z" fill="#020204"/>
<g opacity="0.95" filter="url(#filter31_f_1_563)">
<path d="M4.35974 6.94742C4.25081 7.04779 4.15685 7.16328 4.08077 7.29036C3.95574 7.49937 3.88207 7.73406 3.79125 7.96003C3.72358 8.12826 3.64481 8.29711 3.63534 8.47814C3.63051 8.57111 3.64424 8.66399 3.64738 8.75706C3.65052 8.85013 3.64185 8.94685 3.59584 9.02811C3.55774 9.09606 3.49433 9.14949 3.4209 9.17545C3.52069 9.20905 3.60788 9.27222 3.67091 9.35657C3.72316 9.42686 3.75657 9.50906 3.80194 9.58385C3.83882 9.64468 3.88409 9.70101 3.93985 9.7453C3.99562 9.78958 4.06216 9.82121 4.13278 9.83026C4.18138 9.83615 4.23066 9.83149 4.27729 9.81659C4.32391 9.80169 4.36677 9.77691 4.40295 9.74394C4.31274 8.89873 4.39535 8.03547 4.64429 7.22274C4.65999 7.17143 4.67648 7.11974 4.68037 7.06622C4.68426 7.0127 4.67428 6.95619 4.64176 6.91354C4.62442 6.89081 4.60108 6.87277 4.57474 6.86162C4.54841 6.85046 4.51917 6.84639 4.49086 6.84981C4.46256 6.85323 4.43509 6.86415 4.41213 6.88121C4.38917 6.89826 4.3708 6.92137 4.35932 6.94752L4.35974 6.94742Z" fill="#7C7C7C"/>
</g>
<path d="M3.20003 9.60692C3.27501 9.57585 3.35927 9.57018 3.43903 9.58489C3.51879 9.59961 3.59415 9.6341 3.6613 9.67965C3.79551 9.77084 3.89505 9.90356 3.99041 10.0349C4.20936 10.3364 4.42014 10.6442 4.61111 10.9641C4.76603 11.2237 4.9084 11.4917 5.08742 11.7352C5.20429 11.8941 5.33611 12.0417 5.45355 12.2001C5.57099 12.3586 5.67512 12.5308 5.72723 12.7211C5.7949 12.9684 5.7687 13.241 5.65098 13.4687C5.56818 13.629 5.44123 13.7664 5.28677 13.8595C5.13231 13.9527 4.95076 14.0008 4.77053 13.994C4.48402 13.9833 4.22224 13.8401 3.95588 13.7339C3.41321 13.5178 2.82368 13.45 2.26429 13.2816C2.0923 13.2299 1.92331 13.1687 1.75021 13.1211C1.67335 13.1 1.59509 13.0813 1.52245 13.0484C1.44982 13.0155 1.38187 12.9664 1.34147 12.8977C1.31026 12.8445 1.29705 12.7819 1.29789 12.7203C1.29873 12.6586 1.31317 12.5977 1.33416 12.5398C1.37615 12.4238 1.44396 12.3188 1.48974 12.2044C1.56449 12.0174 1.57794 11.8113 1.56786 11.6101C1.55779 11.409 1.52522 11.2097 1.51139 11.0089C1.5053 10.9192 1.50296 10.8283 1.52006 10.7401C1.53717 10.6519 1.57517 10.5655 1.63994 10.5032C1.69964 10.4457 1.77889 10.4116 1.86 10.3946C1.94112 10.3777 2.02472 10.377 2.10762 10.3788C2.19052 10.3806 2.27352 10.3851 2.35618 10.3783C2.43885 10.3716 2.52175 10.353 2.59377 10.3119C2.66219 10.2728 2.71815 10.2146 2.76454 10.1509C2.81093 10.0873 2.84842 10.0176 2.88685 9.94878C2.92528 9.87999 2.96502 9.81138 3.01535 9.75074C3.06568 9.6901 3.12735 9.63719 3.20013 9.60701L3.20003 9.60692Z" fill="url(#paint24_linear_1_563)"/>
<g filter="url(#filter32_f_1_563)">
<path d="M3.31924 9.73606C3.38743 9.7086 3.46423 9.7056 3.53589 9.72181C3.60754 9.73803 3.67413 9.77336 3.73215 9.81774C3.84827 9.90743 3.92897 10.034 4.00648 10.1584C4.19252 10.4599 4.37435 10.7645 4.54615 11.0754C4.67628 11.3094 4.80037 11.5484 4.96027 11.7633C5.06637 11.9059 5.18741 12.0365 5.29571 12.1774C5.40401 12.3184 5.5005 12.4718 5.54844 12.6429C5.61011 12.8635 5.58513 13.1069 5.47838 13.3099C5.40108 13.4563 5.28446 13.5783 5.14163 13.662C4.99843 13.7452 4.83439 13.7857 4.66893 13.7786C4.40659 13.7665 4.16703 13.6355 3.92006 13.5466C3.44661 13.3748 2.93347 13.3518 2.44784 13.2177C2.27374 13.1704 2.10401 13.1074 1.92907 13.0633C1.85165 13.0437 1.77288 13.0278 1.69935 12.9967C1.62582 12.9657 1.55656 12.9175 1.51668 12.8484C1.48702 12.797 1.47516 12.7365 1.47699 12.6772C1.47882 12.6179 1.49386 12.56 1.51448 12.5041C1.55675 12.3932 1.6232 12.2932 1.66584 12.1819C1.73051 12.0144 1.73848 11.8302 1.72648 11.6511C1.71449 11.472 1.68337 11.2945 1.67245 11.1153C1.66758 11.0352 1.66683 10.9541 1.68304 10.8756C1.69926 10.797 1.73347 10.7209 1.79059 10.6641C1.85245 10.6027 1.93774 10.5693 2.02383 10.5562C2.10991 10.543 2.1975 10.5487 2.28415 10.5565C2.37079 10.5642 2.45777 10.574 2.5447 10.5688C2.63163 10.5636 2.71978 10.5424 2.79167 10.4934C2.85713 10.4492 2.90629 10.3845 2.94369 10.3155C2.98108 10.2464 3.00779 10.1723 3.03629 10.0991C3.06478 10.0259 3.09566 9.9528 3.14042 9.88822C3.18517 9.82364 3.2452 9.76614 3.31877 9.73662" fill="#D99A03"/>
</g>
<g filter="url(#filter33_f_1_563)">
<path d="M3.25372 9.56682C3.3198 9.53405 3.39759 9.52734 3.47004 9.54211C3.54249 9.55688 3.6096 9.59227 3.66668 9.63857C3.78079 9.73061 3.85319 9.86292 3.92067 9.99224C4.07555 10.2893 4.21979 10.5928 4.40513 10.8725C4.53963 11.075 4.69474 11.2645 4.83074 11.4664C5.01519 11.7403 5.16515 12.0415 5.227 12.3642C5.26862 12.5812 5.26731 12.8152 5.16271 13.0111C5.09382 13.1398 4.98229 13.2458 4.85047 13.3114C4.71864 13.377 4.56728 13.4042 4.4198 13.3912C4.18764 13.3707 3.97676 13.2566 3.75824 13.177C3.37046 13.0357 2.95137 13.002 2.55229 12.8953C2.38396 12.8504 2.21957 12.7925 2.04852 12.7573C1.97326 12.7415 1.8965 12.7301 1.82466 12.703C1.75282 12.6758 1.68472 12.6309 1.64798 12.5645C1.62221 12.5177 1.61345 12.463 1.61734 12.41C1.62123 12.3569 1.63702 12.3053 1.65787 12.2562C1.69949 12.1579 1.76097 12.0679 1.79377 11.9664C1.84125 11.8172 1.82175 11.6554 1.78609 11.5031C1.75043 11.3507 1.69906 11.2012 1.68327 11.0456C1.67624 10.9764 1.67638 10.9057 1.69218 10.8378C1.70797 10.77 1.7403 10.7047 1.79106 10.656C1.85633 10.5934 1.94776 10.5622 2.03863 10.5534C2.1295 10.5447 2.22102 10.5566 2.31137 10.5695C2.40172 10.5824 2.49263 10.5971 2.58387 10.5925C2.67511 10.5879 2.76795 10.5645 2.83941 10.5086C2.91008 10.4534 2.95451 10.3711 2.98 10.286C3.00549 10.2009 3.01374 10.112 3.02419 10.0239C3.03464 9.93582 3.04762 9.84691 3.08183 9.7648C3.11604 9.6827 3.17368 9.60704 3.25429 9.56705L3.25372 9.56682Z" fill="#F5BD0C"/>
</g>
<g filter="url(#filter34_f_1_563)">
<path d="M4.08179 10.3101C4.20391 10.5309 4.27842 10.7844 4.39951 11.0071C4.51095 11.212 4.63776 11.423 4.75098 11.6119C4.80136 11.6961 4.91889 11.8254 5.03778 12.0261C5.14547 12.2079 5.25419 12.4617 5.31506 12.547C5.28011 12.4472 5.20822 12.1793 5.12246 11.9882C5.04279 11.8097 4.94907 11.7079 4.89157 11.6119C4.77835 11.423 4.65646 11.2532 4.5401 11.073C4.3796 10.8246 4.25724 10.5465 4.08179 10.3101V10.3101Z" fill="url(#paint25_linear_1_563)"/>
</g>
</g>
<defs>
<filter id="filter0_f_1_563" x="4.60203" y="3.06614" width="4.74223" height="3.51713" filterUnits="userSpaceOnUse" color-interpolation-filters="sRGB">
<feFlood flood-opacity="0" result="BackgroundImageFix"/>
<feBlend mode="normal" in="SourceGraphic" in2="BackgroundImageFix" result="shape"/>
<feGaussianBlur stdDeviation="0.436168" result="effect1_foregroundBlur_1_563"/>
</filter>
<filter id="filter1_f_1_563" x="5.06671" y="3.42437" width="3.63539" height="2.0702" filterUnits="userSpaceOnUse" color-interpolation-filters="sRGB">
<feFlood flood-opacity="0" result="BackgroundImageFix"/>
<feBlend mode="normal" in="SourceGraphic" in2="BackgroundImageFix" result="shape"/>
<feGaussianBlur stdDeviation="0.191623" result="effect1_foregroundBlur_1_563"/>
</filter>
<filter id="filter2_f_1_563" x="4.87195" y="2.49255" width="3.9917" height="2.59155" filterUnits="userSpaceOnUse" color-interpolation-filters="sRGB">
<feFlood flood-opacity="0" result="BackgroundImageFix"/>
<feBlend mode="normal" in="SourceGraphic" in2="BackgroundImageFix" result="shape"/>
<feGaussianBlur stdDeviation="0.291564" result="effect1_foregroundBlur_1_563"/>
</filter>
<filter id="filter3_f_1_563" x="6.881" y="-0.170026" width="2.48995" height="2.44943" filterUnits="userSpaceOnUse" color-interpolation-filters="sRGB">
<feFlood flood-opacity="0" result="BackgroundImageFix"/>
<feBlend mode="normal" in="SourceGraphic" in2="BackgroundImageFix" result="shape"/>
<feGaussianBlur stdDeviation="0.429496" result="effect1_foregroundBlur_1_563"/>
</filter>
<filter id="filter4_f_1_563" x="7.51563" y="2.77222" width="0.390617" height="0.34716" filterUnits="userSpaceOnUse" color-interpolation-filters="sRGB">
<feFlood flood-opacity="0" result="BackgroundImageFix"/>
<feBlend mode="normal" in="SourceGraphic" in2="BackgroundImageFix" result="shape"/>
<feGaussianBlur stdDeviation="0.0533428" result="effect1_foregroundBlur_1_563"/>
</filter>
<filter id="filter5_f_1_563" x="7.40312" y="2.45292" width="0.771642" height="0.767003" filterUnits="userSpaceOnUse" color-interpolation-filters="sRGB">
<feFlood flood-opacity="0" result="BackgroundImageFix"/>
<feBlend mode="normal" in="SourceGraphic" in2="BackgroundImageFix" result="shape"/>
<feGaussianBlur stdDeviation="0.111184" result="effect1_foregroundBlur_1_563"/>
</filter>
<filter id="filter6_f_1_563" x="7.66169" y="1.72223" width="0.845817" height="0.790397" filterUnits="userSpaceOnUse" color-interpolation-filters="sRGB">
<feFlood flood-opacity="0" result="BackgroundImageFix"/>
<feBlend mode="normal" in="SourceGraphic" in2="BackgroundImageFix" result="shape"/>
<feGaussianBlur stdDeviation="0.0317057" result="effect1_foregroundBlur_1_563"/>
</filter>
<filter id="filter7_f_1_563" x="5.73147" y="1.8196" width="0.787802" height="0.706503" filterUnits="userSpaceOnUse" color-interpolation-filters="sRGB">
<feFlood flood-opacity="0" result="BackgroundImageFix"/>
<feBlend mode="normal" in="SourceGraphic" in2="BackgroundImageFix" result="shape"/>
<feGaussianBlur stdDeviation="0.0289208" result="effect1_foregroundBlur_1_563"/>
</filter>
<filter id="filter8_f_1_563" x="5.65105" y="2.49993" width="0.685445" height="0.834127" filterUnits="userSpaceOnUse" color-interpolation-filters="sRGB">
<feFlood flood-opacity="0" result="BackgroundImageFix"/>
<feBlend mode="normal" in="SourceGraphic" in2="BackgroundImageFix" result="shape"/>
<feGaussianBlur stdDeviation="0.109899" result="effect1_foregroundBlur_1_563"/>
</filter>
<filter id="filter9_f_1_563" x="5.75691" y="3.90339" width="1.421" height="1.22837" filterUnits="userSpaceOnUse" color-interpolation-filters="sRGB">
<feFlood flood-opacity="0" result="BackgroundImageFix"/>
<feBlend mode="normal" in="SourceGraphic" in2="BackgroundImageFix" result="shape"/>
<feGaussianBlur stdDeviation="0.192591" result="effect1_foregroundBlur_1_563"/>
</filter>
<filter id="filter10_f_1_563" x="5.23529" y="3.21087" width="3.12854" height="1.72376" filterUnits="userSpaceOnUse" color-interpolation-filters="sRGB">
<feFlood flood-opacity="0" result="BackgroundImageFix"/>
<feBlend mode="normal" in="SourceGraphic" in2="BackgroundImageFix" result="shape"/>
<feGaussianBlur stdDeviation="0.162385" result="effect1_foregroundBlur_1_563"/>
</filter>
<filter id="filter11_f_1_563" x="6.27589" y="3.2173" width="1.32054" height="1.45994" filterUnits="userSpaceOnUse" color-interpolation-filters="sRGB">
<feFlood flood-opacity="0" result="BackgroundImageFix"/>
<feBlend mode="normal" in="SourceGraphic" in2="BackgroundImageFix" result="shape"/>
<feGaussianBlur stdDeviation="0.18188" result="effect1_foregroundBlur_1_563"/>
</filter>
<filter id="filter12_f_1_563" x="6.79027" y="3.2307" width="0.359641" height="0.23342" filterUnits="userSpaceOnUse" color-interpolation-filters="sRGB">
<feFlood flood-opacity="0" result="BackgroundImageFix"/>
<feBlend mode="normal" in="SourceGraphic" in2="BackgroundImageFix" result="shape"/>
<feGaussianBlur stdDeviation="0.0235651" result="effect1_foregroundBlur_1_563"/>
</filter>
<filter id="filter13_f_1_563" x="6.16576" y="3.25267" width="0.20095" height="0.211936" filterUnits="userSpaceOnUse" color-interpolation-filters="sRGB">
<feFlood flood-opacity="0" result="BackgroundImageFix"/>
<feBlend mode="normal" in="SourceGraphic" in2="BackgroundImageFix" result="shape"/>
<feGaussianBlur stdDeviation="0.0235651" result="effect1_foregroundBlur_1_563"/>
</filter>
<filter id="filter14_f_1_563" x="7.87564" y="3.53872" width="0.562936" height="0.623727" filterUnits="userSpaceOnUse" color-interpolation-filters="sRGB">
<feFlood flood-opacity="0" result="BackgroundImageFix"/>
<feBlend mode="normal" in="SourceGraphic" in2="BackgroundImageFix" result="shape"/>
<feGaussianBlur stdDeviation="0.073168" result="effect1_foregroundBlur_1_563"/>
</filter>
<filter id="filter15_f_1_563" x="8.85863" y="5.97606" width="2.48635" height="4.96633" filterUnits="userSpaceOnUse" color-interpolation-filters="sRGB">
<feFlood flood-opacity="0" result="BackgroundImageFix"/>
<feBlend mode="normal" in="SourceGraphic" in2="BackgroundImageFix" result="shape"/>
<feGaussianBlur stdDeviation="0.292242" result="effect1_foregroundBlur_1_563"/>
</filter>
<filter id="filter16_f_1_563" x="4.10831" y="5.57852" width="2.26532" height="2.15741" filterUnits="userSpaceOnUse" color-interpolation-filters="sRGB">
<feFlood flood-opacity="0" result="BackgroundImageFix"/>
<feBlend mode="normal" in="SourceGraphic" in2="BackgroundImageFix" result="shape"/>
<feGaussianBlur stdDeviation="0.147995" result="effect1_foregroundBlur_1_563"/>
</filter>
<filter id="filter17_f_1_563" x="6.42819" y="5.26388" width="3.49567" height="2.72224" filterUnits="userSpaceOnUse" color-interpolation-filters="sRGB">
<feFlood flood-opacity="0" result="BackgroundImageFix"/>
<feBlend mode="normal" in="SourceGraphic" in2="BackgroundImageFix" result="shape"/>
<feGaussianBlur stdDeviation="0.243791" result="effect1_foregroundBlur_1_563"/>
</filter>
<filter id="filter18_f_1_563" x="5.57846" y="5.61776" width="1.68928" height="1.75959" filterUnits="userSpaceOnUse" color-interpolation-filters="sRGB">
<feFlood flood-opacity="0" result="BackgroundImageFix"/>
<feBlend mode="normal" in="SourceGraphic" in2="BackgroundImageFix" result="shape"/>
<feGaussianBlur stdDeviation="0.168169" result="effect1_foregroundBlur_1_563"/>
</filter>
<filter id="filter19_f_1_563" x="5.34627" y="6.9283" width="1.43807" height="4.05208" filterUnits="userSpaceOnUse" color-interpolation-filters="sRGB">
<feFlood flood-opacity="0" result="BackgroundImageFix"/>
<feBlend mode="normal" in="SourceGraphic" in2="BackgroundImageFix" result="shape"/>
<feGaussianBlur stdDeviation="0.309774" result="effect1_foregroundBlur_1_563"/>
</filter>
<filter id="filter20_f_1_563" x="8.3625" y="3.85322" width="1.34263" height="1.40733" filterUnits="userSpaceOnUse" color-interpolation-filters="sRGB">
<feFlood flood-opacity="0" result="BackgroundImageFix"/>
<feBlend mode="normal" in="SourceGraphic" in2="BackgroundImageFix" result="shape"/>
<feGaussianBlur stdDeviation="0.193019" result="effect1_foregroundBlur_1_563"/>
</filter>
<filter id="filter21_f_1_563" x="7.7306" y="9.38075" width="5.26487" height="5.56077" filterUnits="userSpaceOnUse" color-interpolation-filters="sRGB">
<feFlood flood-opacity="0" result="BackgroundImageFix"/>
<feBlend mode="normal" in="SourceGraphic" in2="BackgroundImageFix" result="shape"/>
<feGaussianBlur stdDeviation="0.479548" result="effect1_foregroundBlur_1_563"/>
</filter>
<filter id="filter22_f_1_563" x="7.08107" y="7.85671" width="7.80148" height="7.85348" filterUnits="userSpaceOnUse" color-interpolation-filters="sRGB">
<feFlood flood-opacity="0" result="BackgroundImageFix"/>
<feBlend mode="normal" in="SourceGraphic" in2="BackgroundImageFix" result="shape"/>
<feGaussianBlur stdDeviation="1.0238" result="effect1_foregroundBlur_1_563"/>
</filter>
<filter id="filter23_f_1_563" x="7.66561" y="8.00619" width="6.76399" height="6.74593" filterUnits="userSpaceOnUse" color-interpolation-filters="sRGB">
<feFlood flood-opacity="0" result="BackgroundImageFix"/>
<feBlend mode="normal" in="SourceGraphic" in2="BackgroundImageFix" result="shape"/>
<feGaussianBlur stdDeviation="0.806721" result="effect1_foregroundBlur_1_563"/>
</filter>
<filter id="filter24_f_1_563" x="9.03378" y="9.74448" width="2.98932" height="0.827453" filterUnits="userSpaceOnUse" color-interpolation-filters="sRGB">
<feFlood flood-opacity="0" result="BackgroundImageFix"/>
<feBlend mode="normal" in="SourceGraphic" in2="BackgroundImageFix" result="shape"/>
<feGaussianBlur stdDeviation="0.102615" result="effect1_foregroundBlur_1_563"/>
</filter>
<filter id="filter25_f_1_563" x="8.86923" y="6.24447" width="2.43659" height="2.4466" filterUnits="userSpaceOnUse" color-interpolation-filters="sRGB">
<feFlood flood-opacity="0" result="BackgroundImageFix"/>
<feBlend mode="normal" in="SourceGraphic" in2="BackgroundImageFix" result="shape"/>
<feGaussianBlur stdDeviation="0.491044" result="effect1_foregroundBlur_1_563"/>
</filter>
<filter id="filter26_f_1_563" x="4.65043" y="5.0535" width="0.744309" height="0.750413" filterUnits="userSpaceOnUse" color-interpolation-filters="sRGB">
<feFlood flood-opacity="0" result="BackgroundImageFix"/>
<feBlend mode="normal" in="SourceGraphic" in2="BackgroundImageFix" result="shape"/>
<feGaussianBlur stdDeviation="0.137066" result="effect1_foregroundBlur_1_563"/>
</filter>
<filter id="filter27_f_1_563" x="8.55979" y="8.8635" width="4.03276" height="3.80327" filterUnits="userSpaceOnUse" color-interpolation-filters="sRGB">
<feFlood flood-opacity="0" result="BackgroundImageFix"/>
<feBlend mode="normal" in="SourceGraphic" in2="BackgroundImageFix" result="shape"/>
<feGaussianBlur stdDeviation="0.609264" result="effect1_foregroundBlur_1_563"/>
</filter>
<filter id="filter28_f_1_563" x="9.30583" y="9.61442" width="2.54068" height="1.93277" filterUnits="userSpaceOnUse" color-interpolation-filters="sRGB">
<feFlood flood-opacity="0" result="BackgroundImageFix"/>
<feBlend mode="normal" in="SourceGraphic" in2="BackgroundImageFix" result="shape"/>
<feGaussianBlur stdDeviation="0.236245" result="effect1_foregroundBlur_1_563"/>
</filter>
<filter id="filter29_f_1_563" x="9.45585" y="8.95292" width="2.51505" height="1.64396" filterUnits="userSpaceOnUse" color-interpolation-filters="sRGB">
<feFlood flood-opacity="0" result="BackgroundImageFix"/>
<feBlend mode="normal" in="SourceGraphic" in2="BackgroundImageFix" result="shape"/>
<feGaussianBlur stdDeviation="0.219584" result="effect1_foregroundBlur_1_563"/>
</filter>
<filter id="filter30_f_1_563" x="9.45585" y="8.95292" width="2.51505" height="1.64396" filterUnits="userSpaceOnUse" color-interpolation-filters="sRGB">
<feFlood flood-opacity="0" result="BackgroundImageFix"/>
<feBlend mode="normal" in="SourceGraphic" in2="BackgroundImageFix" result="shape"/>
<feGaussianBlur stdDeviation="0.219584" result="effect1_foregroundBlur_1_563"/>
</filter>
<filter id="filter31_f_1_563" x="2.93589" y="6.36362" width="2.23028" height="3.95391" filterUnits="userSpaceOnUse" color-interpolation-filters="sRGB">
<feFlood flood-opacity="0" result="BackgroundImageFix"/>
<feBlend mode="normal" in="SourceGraphic" in2="BackgroundImageFix" result="shape"/>
<feGaussianBlur stdDeviation="0.242506" result="effect1_foregroundBlur_1_563"/>
</filter>
<filter id="filter32_f_1_563" x="-0.204455" y="8.03065" width="7.46726" height="7.42991" filterUnits="userSpaceOnUse" color-interpolation-filters="sRGB">
<feFlood flood-opacity="0" result="BackgroundImageFix"/>
<feBlend mode="normal" in="SourceGraphic" in2="BackgroundImageFix" result="shape"/>
<feGaussianBlur stdDeviation="0.840631" result="effect1_foregroundBlur_1_563"/>
</filter>
<filter id="filter33_f_1_563" x="0.581722" y="8.49994" width="5.70545" height="5.92933" filterUnits="userSpaceOnUse" color-interpolation-filters="sRGB">
<feFlood flood-opacity="0" result="BackgroundImageFix"/>
<feBlend mode="normal" in="SourceGraphic" in2="BackgroundImageFix" result="shape"/>
<feGaussianBlur stdDeviation="0.517366" result="effect1_foregroundBlur_1_563"/>
</filter>
<filter id="filter34_f_1_563" x="3.92326" y="10.1515" width="1.55046" height="2.55387" filterUnits="userSpaceOnUse" color-interpolation-filters="sRGB">
<feFlood flood-opacity="0" result="BackgroundImageFix"/>
<feBlend mode="normal" in="SourceGraphic" in2="BackgroundImageFix" result="shape"/>
<feGaussianBlur stdDeviation="0.0792644" result="effect1_foregroundBlur_1_563"/>
</filter>
<radialGradient id="paint0_radial_1_563" cx="0" cy="0" r="1" gradientUnits="userSpaceOnUse" gradientTransform="translate(181.018 264.019) rotate(-2.41003) scale(11.6631 28.5471)">
<stop stop-color="#FEFEFC"/>
<stop offset="0.757" stop-color="#FEFEFC"/>
<stop offset="1" stop-color="#D4D4D4"/>
</radialGradient>
<radialGradient id="paint1_radial_1_563" cx="0" cy="0" r="1" gradientUnits="userSpaceOnUse" gradientTransform="translate(324.932 276.515) rotate(-1.81001) scale(20.881 30.175)">
<stop stop-color="#FEFEFC"/>
<stop offset="0.757" stop-color="#FEFEFC"/>
<stop offset="1" stop-color="#D4D4D4"/>
</radialGradient>
<radialGradient id="paint2_radial_1_563" cx="0" cy="0" r="1" gradientUnits="userSpaceOnUse" gradientTransform="translate(346.639 -91.2185) rotate(-36.0086) scale(19.1305 12.6908)">
<stop stop-color="#020204"/>
<stop offset="0.734" stop-color="#020204"/>
<stop offset="1" stop-color="#5C5C5C"/>
</radialGradient>
<linearGradient id="paint3_linear_1_563" x1="106.701" y1="45.4569" x2="108.86" y2="48.0512" gradientUnits="userSpaceOnUse">
<stop stop-color="#949494" stop-opacity="0.392"/>
<stop offset="0.5" stop-color="#949494"/>
<stop offset="1" stop-color="#949494" stop-opacity="0.392"/>
</linearGradient>
<linearGradient id="paint4_linear_1_563" x1="205.609" y1="195.961" x2="244.641" y2="228.023" gradientUnits="userSpaceOnUse">
<stop stop-color="#747474"/>
<stop offset="0.125" stop-color="#8C8C8C"/>
<stop offset="0.25" stop-color="#A4A4A4"/>
<stop offset="0.5" stop-color="#D4D4D4"/>
<stop offset="0.619" stop-color="#D4D4D4"/>
<stop offset="1" stop-color="#7C7C7C"/>
</linearGradient>
<linearGradient id="paint5_linear_1_563" x1="18.8769" y1="71.8237" x2="28.3321" y2="81.4971" gradientUnits="userSpaceOnUse">
<stop stop-color="#646464" stop-opacity="0"/>
<stop offset="0.306" stop-color="#646464" stop-opacity="0.583"/>
<stop offset="0.47" stop-color="#646464"/>
<stop offset="0.728" stop-color="#646464" stop-opacity="0.257"/>
<stop offset="1" stop-color="#646464" stop-opacity="0"/>
</linearGradient>
<linearGradient id="paint6_linear_1_563" x1="-11.5351" y1="64.895" x2="-3.64589" y2="73.5397" gradientUnits="userSpaceOnUse">
<stop stop-color="#646464" stop-opacity="0"/>
<stop offset="0.306" stop-color="#646464" stop-opacity="0.583"/>
<stop offset="0.47" stop-color="#646464"/>
<stop offset="0.728" stop-color="#646464" stop-opacity="0.257"/>
<stop offset="1" stop-color="#646464" stop-opacity="0"/>
</linearGradient>
<linearGradient id="paint7_linear_1_563" x1="46.2122" y1="54.8402" x2="48.8983" y2="57.833" gradientUnits="userSpaceOnUse">
<stop stop-color="#757574" stop-opacity="0"/>
<stop offset="0.263" stop-color="#757574"/>
<stop offset="0.5" stop-color="#757574"/>
<stop offset="1" stop-color="#757574" stop-opacity="0"/>
</linearGradient>
<radialGradient id="paint8_radial_1_563" cx="0" cy="0" r="1" gradientUnits="userSpaceOnUse" gradientTransform="translate(858.626 -138.608) rotate(-22.428) scale(90.1348 31.3145)">
<stop stop-color="#D2940A"/>
<stop offset="0.751" stop-color="#D89C08"/>
<stop offset="0.866" stop-color="#B67E07"/>
<stop offset="1" stop-color="#946106"/>
</radialGradient>
<linearGradient id="paint9_linear_1_563" x1="137.882" y1="228.712" x2="297.481" y2="226.235" gradientUnits="userSpaceOnUse">
<stop stop-color="#AD780A"/>
<stop offset="0.12" stop-color="#D89E08"/>
<stop offset="0.255" stop-color="#EDB80B"/>
<stop offset="0.392" stop-color="#EBC80D"/>
<stop offset="0.527" stop-color="#F5D838"/>
<stop offset="0.769" stop-color="#F6D811"/>
<stop offset="1" stop-color="#F5CD31"/>
</linearGradient>
<radialGradient id="paint10_radial_1_563" cx="0" cy="0" r="1" gradientUnits="userSpaceOnUse" gradientTransform="translate(27.4549 15.2601) scale(0.857381 0.262485)">
<stop stop-color="#3A2903"/>
<stop offset="0.555" stop-color="#735208"/>
<stop offset="1" stop-color="#AC8C04"/>
</radialGradient>
<radialGradient id="paint11_radial_1_563" cx="0" cy="0" r="1" gradientUnits="userSpaceOnUse" gradientTransform="translate(12.9406 21.9234) scale(0.163598 0.193935)">
<stop stop-color="#3A2903"/>
<stop offset="0.555" stop-color="#735208"/>
<stop offset="1" stop-color="#AC8C04"/>
</radialGradient>
<linearGradient id="paint12_linear_1_563" x1="67.2968" y1="55.6962" x2="67.4666" y2="56.5773" gradientUnits="userSpaceOnUse">
<stop stop-color="#F5CE2D"/>
<stop offset="1" stop-color="#D79B08"/>
</linearGradient>
<radialGradient id="paint13_radial_1_563" cx="0" cy="0" r="1" gradientUnits="userSpaceOnUse" gradientTransform="translate(186.529 9.40868) rotate(-9.34942) scale(23.7859 10.2026)">
<stop stop-color="#C8C8C8"/>
<stop offset="1" stop-color="#797978"/>
</radialGradient>
<radialGradient id="paint14_radial_1_563" cx="0" cy="0" r="1" gradientUnits="userSpaceOnUse" gradientTransform="translate(-372.927 269.559) rotate(180) scale(32.0114 32.7349)">
<stop/>
<stop offset="1" stop-opacity="0.25"/>
</radialGradient>
<radialGradient id="paint15_radial_1_563" cx="0" cy="0" r="1" gradientUnits="userSpaceOnUse" gradientTransform="translate(780.099 320.833) scale(69.0359 36.5328)">
<stop/>
<stop offset="1" stop-opacity="0.25"/>
</radialGradient>
<radialGradient id="paint16_radial_1_563" cx="0" cy="0" r="1" gradientUnits="userSpaceOnUse" gradientTransform="translate(272.496 267.09) scale(11.0249 12.6027)">
<stop/>
<stop offset="1" stop-opacity="0.25"/>
</radialGradient>
<linearGradient id="paint17_linear_1_563" x1="103.353" y1="1190.14" x2="117.958" y2="1290.3" gradientUnits="userSpaceOnUse">
<stop/>
<stop offset="1" stop-opacity="0"/>
</linearGradient>
<linearGradient id="paint18_linear_1_563" x1="1800.43" y1="1562.88" x2="2004.15" y2="1242.64" gradientUnits="userSpaceOnUse">
<stop stop-color="#3E2A06"/>
<stop offset="1" stop-color="#AD780A"/>
</linearGradient>
<linearGradient id="paint19_linear_1_563" x1="125.707" y1="130.762" x2="125.611" y2="136.136" gradientUnits="userSpaceOnUse">
<stop stop-color="#F3CD0C"/>
<stop offset="1" stop-color="#F3CD0C" stop-opacity="0"/>
</linearGradient>
<radialGradient id="paint20_radial_1_563" cx="0" cy="0" r="1" gradientUnits="userSpaceOnUse" gradientTransform="translate(596.651 777.046) rotate(15) scale(36.4048 32.7227)">
<stop stop-color="#110800"/>
<stop offset="0.591" stop-color="#A65A00" stop-opacity="0.8"/>
<stop offset="1" stop-color="#FF921E" stop-opacity="0"/>
</radialGradient>
<radialGradient id="paint21_radial_1_563" cx="0" cy="0" r="1" gradientUnits="userSpaceOnUse" gradientTransform="translate(596.651 564.544) rotate(10.9628) scale(35.818 24.0436)">
<stop stop-color="#110800"/>
<stop offset="0.591" stop-color="#A65A00" stop-opacity="0.8"/>
<stop offset="1" stop-color="#FF921E" stop-opacity="0"/>
</radialGradient>
<radialGradient id="paint22_radial_1_563" cx="0" cy="0" r="1" gradientUnits="userSpaceOnUse" gradientTransform="translate(222.341 139.262) rotate(23.5217) scale(13.2071 2.85535)">
<stop stop-color="#7C7C7C"/>
<stop offset="1" stop-color="#7C7C7C" stop-opacity="0.33"/>
</radialGradient>
<linearGradient id="paint23_linear_1_563" x1="596.653" y1="223.287" x2="601.533" y2="222.853" gradientUnits="userSpaceOnUse">
<stop stop-color="#7C7C7C"/>
<stop offset="1" stop-color="#7C7C7C" stop-opacity="0.33"/>
</linearGradient>
<linearGradient id="paint24_linear_1_563" x1="551.223" y1="1341.63" x2="760.968" y2="1697.4" gradientUnits="userSpaceOnUse">
<stop stop-color="#B98309"/>
<stop offset="1" stop-color="#382605"/>
</linearGradient>
<linearGradient id="paint25_linear_1_563" x1="215.022" y1="731.101" x2="255.557" y2="773.169" gradientUnits="userSpaceOnUse">
<stop stop-color="#EBC40C"/>
<stop offset="1" stop-color="#EBC40C" stop-opacity="0"/>
</linearGradient>
<clipPath id="clip0_1_563">
<rect width="14" height="14" fill="white"/>
</clipPath>
</defs>
</svg>
